<svg width="21" height="19" viewBox="0 0 21 19" fill="none" xmlns="http://www.w3.org/2000/svg">
<path fill-rule="evenodd" clip-rule="evenodd" d="M18.0215 18.2084H2.97982C2.10542 18.2084 1.39648 17.4994 1.39648 16.625L2.97982 7.12502C3.24819 5.76256 4.0359 5.54169 4.9103 5.54169H5.96005C6.55696 2.79144 8.36394 0.791687 10.5007 0.791687C12.6374 0.791687 14.4443 2.79144 15.0413 5.54169H16.091C16.9654 5.54169 17.7531 5.76256 18.0215 7.12502L19.6048 16.625C19.6048 17.4994 18.8959 18.2084 18.0215 18.2084ZM10.5007 1.58335C8.77798 1.58335 7.31617 3.23715 6.77269 5.54169H14.229C13.6851 3.23715 12.2237 1.58335 10.5007 1.58335ZM17.2298 7.12502C17.1079 6.59025 16.851 6.33335 16.2917 6.33335H15.1723C15.221 6.71969 15.2507 7.11512 15.2507 7.52085C15.2507 7.73935 15.0737 7.91669 14.8548 7.91669C14.6359 7.91669 14.459 7.73935 14.459 7.52085C14.459 7.11433 14.4317 6.71692 14.3794 6.33335H6.62188C6.57003 6.71692 6.54232 7.11433 6.54232 7.52085C6.54232 7.73935 6.36538 7.91669 6.14648 7.91669C5.92759 7.91669 5.75065 7.73935 5.75065 7.52085C5.75065 7.11512 5.78034 6.71969 5.82863 6.33335H4.70921C4.1503 6.33335 3.8938 6.59025 3.77148 7.12502L2.18815 16.625C2.18815 17.062 2.54282 17.4167 2.97982 17.4167H18.0215C18.4585 17.4167 18.8132 17.062 18.8132 16.625L17.2298 7.12502Z" fill="#625555" stroke="#625555"/>
</svg>
