<svg width="71" height="42" viewBox="0 0 71 42" fill="none" xmlns="http://www.w3.org/2000/svg">
<path fill-rule="evenodd" clip-rule="evenodd" d="M54.8065 0.896231C54.784 0.917886 54.7655 1.09069 54.7655 1.28001V1.62434H62.5753H70.385V1.24056V0.856995H62.6162C58.3433 0.856995 54.8289 0.874576 54.8065 0.896231ZM0.939665 10.8467L0.95524 18.4164L1.47589 18.434C1.76225 18.4434 2.05862 18.4363 2.13427 18.4181L2.27222 18.3847V12.5754C2.27222 9.15054 2.29513 6.75265 2.32784 6.73314C2.43286 6.67054 2.54879 6.76895 3.14598 7.42759C3.47505 7.79036 3.85753 8.20695 3.99592 8.35296C4.46562 8.84866 5.24148 9.67454 5.57412 10.0326C5.92634 10.4121 6.21825 10.7236 6.71309 11.2485C6.88153 11.4271 7.21216 11.7843 7.44801 12.0424C7.68386 12.3005 8.04209 12.686 8.24434 12.8992C8.44637 13.1125 8.69557 13.3786 8.7977 13.4907C9.11543 13.8391 10.0742 14.862 10.235 15.0243C10.3737 15.1641 11.0125 15.8509 11.2708 16.1379C11.3627 16.24 11.9952 16.9203 12.3586 17.3077C12.4316 17.3858 12.6659 17.6381 12.8792 17.8688C13.6971 18.7534 13.8082 18.8626 13.8433 18.8173C13.8631 18.7916 13.8723 15.3766 13.8636 11.2283L13.8476 3.68604L13.1898 3.70277L12.5319 3.71971L12.5014 9.55812C12.4798 13.6534 12.4509 15.4027 12.4046 15.4175C12.3684 15.4293 12.1988 15.2855 12.0277 15.0979C11.8569 14.9105 11.611 14.6468 11.4813 14.5119C11.3518 14.377 11.1506 14.1646 11.0345 14.0398C10.0802 13.0141 9.76891 12.683 9.71039 12.6322C9.67301 12.5996 9.4405 12.3473 9.19353 12.0714C8.94655 11.7954 8.49154 11.3042 8.18271 10.9796C7.87388 10.6548 7.37548 10.1237 7.07555 9.79911C6.77562 9.4745 6.461 9.1396 6.37667 9.05534C6.29212 8.97087 6.09499 8.75839 5.93857 8.58301C5.78193 8.40785 5.58903 8.19601 5.50982 8.11261C5.35117 7.94559 4.39665 6.93382 4.20174 6.72585C4.13432 6.65403 3.98458 6.4928 3.8691 6.36737C3.5754 6.04877 2.61576 5.02435 2.57771 4.98854C2.56035 4.97246 2.33986 4.73383 2.08754 4.45854C1.83545 4.18324 1.50504 3.82948 1.35329 3.67211C1.20177 3.51495 1.06849 3.36165 1.05737 3.33164C0.942335 3.02354 0.92587 4.07926 0.939665 10.8467ZM33.0785 3.33592C33.0115 4.12128 33.0671 18.3913 33.1374 18.4173C33.2711 18.4668 34.3051 18.4381 34.3398 18.384C34.3569 18.3572 34.3701 15.7301 34.3692 12.5458C34.3672 6.17333 34.3498 6.45377 34.7221 6.85428C34.8093 6.94819 35.0204 7.17138 35.1911 7.35041C35.362 7.52944 35.7222 7.91257 35.9916 8.20159C36.2613 8.4906 36.5094 8.75582 36.5432 8.79098C36.577 8.82593 36.8113 9.08043 37.0639 9.35636C37.3164 9.6323 37.5382 9.87136 37.5567 9.88766C37.5752 9.90374 37.8366 10.1827 38.1374 10.5073C38.4383 10.8319 38.7126 11.126 38.7469 11.161C38.7814 11.1959 39.1262 11.5658 39.5138 11.9826C40.4003 12.9367 41.3508 13.9545 41.9898 14.6339C42.6177 15.3013 42.5316 15.2087 43.0656 15.7915C43.3177 16.0665 43.5395 16.305 43.5587 16.321C43.6107 16.3658 44.2651 17.062 44.7815 17.622C45.034 17.896 45.4132 18.2989 45.6239 18.5172L46.007 18.914L45.9915 11.3169L45.9759 3.71971L45.3175 3.70277L44.6589 3.68604L44.6522 9.36901C44.6485 12.4948 44.6487 15.1052 44.6527 15.1701C44.6783 15.5914 44.5154 15.5046 43.7682 14.698C43.4674 14.3734 43.2069 14.0945 43.1893 14.0782C43.1715 14.0621 42.7993 13.6635 42.362 13.1929C41.9248 12.7223 41.5528 12.3237 41.5357 12.3076C41.5088 12.2821 40.987 11.7217 40.2487 10.9256C40.1308 10.7984 39.8939 10.5461 39.7219 10.3647C39.5501 10.1835 39.3158 9.92946 39.2012 9.80018C39.0868 9.67111 38.9371 9.51181 38.8688 9.4462C38.8003 9.38059 38.4015 8.955 37.9826 8.50047C37.3335 7.79637 36.1207 6.50008 36.0224 6.4051C36.0054 6.38902 35.6474 6.00374 35.2265 5.54942C34.8057 5.09489 34.4335 4.69352 34.3997 4.65729C34.3656 4.62127 34.128 4.36892 33.8712 4.09663C33.6147 3.82433 33.333 3.52181 33.2453 3.42447C33.1381 3.30505 33.0836 3.27632 33.0785 3.33592ZM61.0592 3.36701C60.1794 3.49051 59.513 3.66825 58.8297 3.96134C58.7236 4.00701 58.6206 4.04431 58.601 4.04431C58.5814 4.04431 58.3927 4.14615 58.1816 4.27051C57.9704 4.39508 57.7695 4.50785 57.735 4.52136C57.3379 4.6768 56.0854 5.85066 55.6504 6.475C53.3911 9.71913 53.8161 14.1142 56.6428 16.7355C57.1029 17.1624 57.8719 17.7378 57.982 17.7378C57.9998 17.7378 58.1173 17.7989 58.243 17.8735C60.0379 18.9406 63.087 19.1546 65.3623 18.3729C68.0419 17.4522 69.7823 15.4784 70.4496 12.6026C70.6894 11.5688 70.525 9.31048 70.1421 8.38254C70.1154 8.31758 70.0459 8.14499 69.9879 7.99876C69.8646 7.68852 69.8615 7.68209 69.5609 7.14287C68.0239 4.38564 64.6089 2.86895 61.0592 3.36701ZM22.821 3.76173C22.8043 3.80354 22.7981 7.11778 22.8067 11.1271L22.8223 18.4164H23.4656H24.1088V11.0679V3.71971L23.4798 3.70277C23.0108 3.69012 22.8432 3.70534 22.821 3.76173ZM63.3369 4.36999C63.6882 4.41823 64.074 4.48748 64.1944 4.52393C64.3146 4.56059 64.5371 4.6292 64.6886 4.67659C65.828 5.03271 67.1121 5.96515 67.8065 6.9409C68.385 7.75391 68.5572 8.10639 68.9145 9.20885C69.338 10.5159 69.1869 12.4866 68.5545 13.9C66.2668 19.0135 58.8982 19.1653 56.362 14.1515C54.8599 11.1824 55.7588 7.47004 58.4515 5.52069C58.6764 5.35796 58.8767 5.2246 58.8969 5.2246C58.9169 5.2246 59.036 5.16242 59.1617 5.08631C59.2874 5.0102 59.6107 4.86719 59.8801 4.76835C61.1246 4.31189 62.0951 4.19997 63.3369 4.36999ZM54.7655 20.6889V21.043H62.5753H70.385V20.6889V20.3347H62.5753H54.7655V20.6889ZM49.3448 32.3385C48.1397 32.5567 47.4537 33.5385 47.6698 34.7351C47.8222 35.5783 48.4176 36.1055 50.1104 36.8971C51.5978 37.5924 52.0673 38.0977 52.0695 39.0066C52.0755 41.2225 49.149 41.8372 48.0634 39.8481C47.8115 39.387 47.808 39.3848 47.5165 39.5263C47.0895 39.7336 47.0877 39.7373 47.2711 40.042C48.8666 42.6941 52.8667 41.8948 52.8667 38.9241C52.8667 37.6569 52.4153 37.1816 50.2072 36.125C48.5395 35.3268 48.0529 34.5976 48.5589 33.6549C49.0998 32.6465 51.066 32.5829 51.6152 33.5558C51.7956 33.8755 51.7903 33.8738 52.0777 33.7012C52.2255 33.6126 52.355 33.5329 52.3659 33.5241C52.4137 33.4853 52.0646 33.0335 51.8274 32.8269C51.2687 32.3406 50.3409 32.1579 49.3448 32.3385ZM19.0091 32.5411L18.6872 32.5589L18.7027 36.9676L18.7185 41.3766H19.0554H19.3923L19.423 39.2519C19.4557 36.9753 19.4719 36.8823 19.7703 37.2541C19.8097 37.3032 20.044 37.5577 20.2909 37.8197C20.5379 38.0819 20.7896 38.3518 20.8503 38.4198C20.911 38.488 21.0786 38.6631 21.2228 38.8091C21.3669 38.9551 21.6317 39.2341 21.8113 39.4288C22.2365 39.8899 23.2589 40.9669 23.5054 41.2132C23.6874 41.3953 23.7228 41.4062 24.1295 41.4062C24.6911 41.4062 24.6942 41.3867 24.2094 40.9021C23.9831 40.6762 23.4834 40.1592 23.0989 39.7536C22.4267 39.0441 21.4335 38.0105 20.695 37.2517C20.5019 37.0532 20.3439 36.8643 20.3439 36.8319C20.3437 36.7365 21.2935 35.7659 23.9028 33.1948L24.5545 32.5526H24.0801H23.6057L23.278 32.892C22.9322 33.2501 21.1607 35.0485 20.2805 35.9355C19.9941 36.2239 19.746 36.4792 19.7291 36.5026C19.6604 36.5984 19.4928 36.6143 19.4586 36.5281C19.439 36.4788 19.423 35.5659 19.423 34.499C19.423 33.4323 19.4023 32.5514 19.3769 32.5413C19.3518 32.5314 19.1862 32.5312 19.0091 32.5411ZM29.3398 32.5563C29.3066 32.576 29.2902 34.3757 29.2995 36.9831L29.3151 41.3766H29.6522H29.989V36.952V32.5271L29.6925 32.5252C29.5291 32.5241 29.3705 32.5381 29.3398 32.5563ZM35.5916 32.5674C35.5315 33.0048 35.5818 41.3528 35.6445 41.376C35.8254 41.4429 38.0435 41.3998 38.6423 41.3179C40.9316 41.0042 42.3129 39.811 42.6738 37.8353C43.1426 35.2683 41.6358 33.1191 39.0306 32.6386C38.637 32.5661 35.6003 32.5031 35.5916 32.5674ZM38.5715 33.1742C39.6028 33.3453 40.3745 33.7256 40.9865 34.3646C41.3094 34.7014 41.7188 35.3798 41.7188 35.5777C41.7188 35.6306 41.7428 35.6881 41.772 35.7057C41.8683 35.7629 41.9813 36.8433 41.938 37.2894C41.7459 39.2594 40.6693 40.3829 38.6218 40.7495C38.1112 40.8408 36.4983 40.8378 36.4022 40.7452C36.2664 40.6144 36.2994 33.2241 36.4358 33.1476C36.5995 33.0556 37.9599 33.0726 38.5715 33.1742Z" fill="#2D2C2B"/>
<path fill-rule="evenodd" clip-rule="evenodd" d="M54.715 0.809837C54.6741 0.849287 54.6416 1.03925 54.6416 1.24057C54.6416 1.4419 54.6741 1.63186 54.715 1.67152C54.8218 1.77444 70.3256 1.77444 70.4324 1.67152C70.4729 1.6325 70.5027 1.53302 70.4987 1.45026C70.492 1.31047 70.4887 1.3124 70.4522 1.47663L70.4128 1.65373H62.5733H54.7335V1.24057V0.827418H62.5833C66.9007 0.827418 70.4202 0.807479 70.4046 0.783251C70.3532 0.70285 54.7987 0.729222 54.715 0.809837ZM0.833937 3.15476C0.762515 3.26604 0.797893 18.4014 0.86976 18.4848C0.96054 18.5901 2.21144 18.5974 2.31957 18.4932C2.37564 18.4391 2.393 17.061 2.393 12.6498C2.393 9.47494 2.41169 6.87745 2.43416 6.87745C2.45685 6.87745 2.53273 6.92376 2.60259 6.98058L2.73008 7.08392L2.61194 6.9497C2.36274 6.66626 2.36363 6.64911 2.33181 12.6665L2.3011 18.4756H1.59689H0.892455L0.86175 10.8688C0.828375 2.56966 0.81191 2.97381 1.16791 3.38482C1.25713 3.48773 1.34992 3.57199 1.37395 3.57199C1.3982 3.57199 1.31587 3.46586 1.19127 3.33593C0.957648 3.09259 0.894235 3.06043 0.833937 3.15476ZM32.9378 3.13911C32.8183 3.25425 32.8951 18.4411 33.0155 18.503C33.4133 18.7082 34.5523 18.5423 34.5498 18.2794C34.5491 18.2117 34.5244 18.2269 34.4715 18.3279C34.3925 18.4788 33.5038 18.5751 33.096 18.4769L32.958 18.4439V10.8032C32.958 2.3068 32.9225 2.97081 33.3525 3.44678C33.9549 4.11379 35.1795 5.40171 35.2111 5.40171C35.2405 5.40171 34.9723 5.09919 34.7937 4.93088C34.7759 4.91394 34.4052 4.51494 33.9702 4.04432C33.0602 3.05936 33.0395 3.04113 32.9378 3.13911ZM62.0072 3.20258C62.2346 3.21394 62.6066 3.21394 62.834 3.20258C63.0614 3.19121 62.8754 3.18199 62.4206 3.18199C61.9658 3.18199 61.7798 3.19121 62.0072 3.20258ZM60.7975 3.27547C60.7234 3.30528 60.8206 3.31214 61.0425 3.29263C61.2445 3.27504 61.4214 3.25103 61.4354 3.23924C61.4877 3.1955 60.9154 3.22809 60.7975 3.27547ZM63.3444 3.23924C63.3585 3.25103 63.5353 3.27526 63.7376 3.29348C63.9659 3.31385 64.0471 3.30806 63.9519 3.27805C63.8008 3.23023 63.295 3.19786 63.3444 3.23924ZM60.0012 3.45407C59.924 3.48602 59.9126 3.50467 59.9705 3.50467C60.021 3.50467 60.1175 3.48194 60.1849 3.45407C60.2621 3.42213 60.2735 3.40326 60.2156 3.40326C60.1649 3.40326 60.0686 3.4262 60.0012 3.45407ZM64.5951 3.45407C64.6625 3.48194 64.7589 3.50467 64.8094 3.50467C64.8675 3.50467 64.8561 3.48602 64.7789 3.45407C64.7115 3.4262 64.6149 3.40326 64.5644 3.40326C64.5066 3.40326 64.5179 3.42213 64.5951 3.45407ZM59.4498 3.60372C59.2068 3.71093 59.3243 3.71071 59.6336 3.6033C59.7684 3.55656 59.8236 3.51925 59.7562 3.52032C59.6888 3.52161 59.551 3.55913 59.4498 3.60372ZM65.1158 3.60158C65.3954 3.70535 65.5054 3.70385 65.2688 3.59944C65.1678 3.55484 65.0437 3.51925 64.9932 3.52011C64.9427 3.52118 64.9978 3.55784 65.1158 3.60158ZM12.476 3.62045C12.4589 3.64703 12.5263 3.65733 12.6256 3.64318C12.7248 3.62924 12.806 3.60737 12.806 3.59493C12.806 3.54991 12.5063 3.57306 12.476 3.62045ZM13.5089 3.61595C13.6764 3.62838 13.8555 3.67019 13.9069 3.70857C13.9888 3.76989 13.9899 3.7656 13.9165 3.67534C13.8533 3.59794 13.7538 3.57478 13.5182 3.58271L13.2043 3.59343L13.5089 3.61595ZM22.7749 3.63589C22.6737 3.6927 22.6685 4.09707 22.6828 10.9972L22.6979 18.2985L22.7137 11.0124C22.7262 5.2735 22.7457 3.71629 22.8058 3.67962C22.9311 3.60287 24.0423 3.62173 24.1255 3.70192C24.2033 3.77696 24.2392 18.2177 24.1617 18.4117C24.1077 18.5478 22.9053 18.5485 22.764 18.4123C22.711 18.3613 22.6676 18.3427 22.6676 18.371C22.6676 18.5208 22.8459 18.5641 23.464 18.5641C23.8874 18.5641 24.1388 18.5395 24.1867 18.4932C24.3328 18.3523 24.2886 3.70878 24.1417 3.6331C23.9895 3.55463 22.9157 3.55677 22.7749 3.63589ZM44.6033 3.65218C44.553 3.71071 44.5385 5.2512 44.5501 9.36281L44.5661 14.993L44.5812 9.33965L44.5961 3.68627L44.7339 3.63288C44.8273 3.59686 44.8396 3.57842 44.7721 3.57585C44.7172 3.57371 44.6413 3.60823 44.6033 3.65218ZM45.2563 3.6153C45.4003 3.62774 45.6208 3.62774 45.7462 3.61487C45.8717 3.60222 45.7538 3.59215 45.4844 3.59236C45.2147 3.59258 45.1121 3.60287 45.2563 3.6153ZM1.59689 3.83764C1.71103 3.95127 1.81828 4.04432 1.83519 4.04432C1.8521 4.04432 1.77244 3.95127 1.65808 3.83764C1.54371 3.724 1.43647 3.63117 1.41956 3.63117C1.40287 3.63117 1.48252 3.724 1.59689 3.83764ZM58.9906 3.77868C58.9062 3.82499 58.8648 3.86294 58.8987 3.86294C58.9323 3.86294 59.0288 3.82499 59.1129 3.77868C59.1973 3.73215 59.2386 3.6942 59.2048 3.6942C59.1712 3.6942 59.0747 3.73215 58.9906 3.77868ZM12.4066 9.44492C12.4066 12.5939 12.4142 13.8734 12.4233 12.2883C12.4322 10.7033 12.4322 8.12699 12.4231 6.56292C12.4142 4.99906 12.4066 6.29598 12.4066 9.44492ZM46.0804 3.92619C46.0804 4.03982 46.0929 4.08635 46.1085 4.02953C46.1238 3.97271 46.1238 3.87966 46.1085 3.82284C46.0929 3.76603 46.0804 3.81255 46.0804 3.92619ZM65.9784 3.8891C66.0414 3.94355 66.402 4.10328 66.402 4.0767C66.402 4.04282 66.0625 3.86723 65.9966 3.86723C65.9726 3.86723 65.9644 3.87709 65.9784 3.8891ZM58.2401 4.10736C58.1139 4.17146 58.0104 4.23729 58.0104 4.25337C58.0104 4.26966 58.1208 4.2285 58.2554 4.16224C58.3903 4.09599 58.5004 4.0291 58.5004 4.01345C58.5004 3.97486 58.4999 3.97507 58.2401 4.10736ZM2.08417 4.35414C2.33804 4.61464 2.393 4.66159 2.393 4.61721C2.393 4.60777 2.26217 4.48171 2.10219 4.33698L1.81116 4.0737L2.08417 4.35414ZM46.0838 4.54603C46.0842 4.70833 46.096 4.76772 46.1103 4.67788C46.1243 4.58826 46.1238 4.45533 46.1094 4.38287C46.0947 4.31018 46.0833 4.38372 46.0838 4.54603ZM66.8615 4.32047C66.8951 4.35178 67.0742 4.47635 67.2596 4.59705C67.5032 4.75571 67.5426 4.77094 67.402 4.65173C67.2206 4.498 66.7269 4.19548 66.8615 4.32047ZM61.9 4.39852C61.6503 4.42124 61.8043 4.43475 62.3803 4.44033C62.8467 4.44483 63.2187 4.44097 63.2072 4.43154C63.1575 4.39101 62.2359 4.36786 61.9 4.39852ZM63.4773 4.498C63.5362 4.51301 63.6326 4.51301 63.6915 4.498C63.7505 4.48321 63.7024 4.4712 63.5845 4.4712C63.4666 4.4712 63.4183 4.48321 63.4773 4.498ZM60.7056 4.5754C60.5825 4.61335 60.5765 4.623 60.6749 4.6245C60.7423 4.62536 60.8527 4.60327 60.9199 4.5754C61.0761 4.51086 60.915 4.51086 60.7056 4.5754ZM63.9214 4.5754C63.9888 4.60327 64.0851 4.62621 64.1357 4.62621C64.1937 4.62621 64.1824 4.60735 64.1052 4.5754C64.0378 4.54753 63.9412 4.5248 63.8907 4.5248C63.8328 4.5248 63.8442 4.54345 63.9214 4.5754ZM13.9381 11.1565C13.9381 14.76 13.9454 16.2254 13.9545 14.4131C13.9634 12.6007 13.9634 9.65247 13.9545 7.86156C13.9454 6.07043 13.9381 7.55325 13.9381 11.1565ZM2.60749 4.92959C2.73898 5.05952 2.86047 5.16565 2.87738 5.16565C2.89429 5.16565 2.80039 5.05952 2.66867 4.92959C2.53718 4.79967 2.41569 4.69354 2.39878 4.69354C2.38209 4.69354 2.47599 4.79967 2.60749 4.92959ZM65.1416 4.96175C65.3076 5.04108 65.4533 5.09619 65.4655 5.08439C65.4916 5.05931 64.9562 4.80996 64.8868 4.81467C64.861 4.81639 64.9758 4.88264 65.1416 4.96175ZM67.719 4.90794C68.1605 5.33053 68.7852 5.86396 68.5153 5.5876C68.3469 5.41522 68.0712 5.16544 67.9028 5.03251C67.7344 4.89958 67.6516 4.84362 67.719 4.90794ZM59.2816 5.08847C59.1216 5.17423 58.9999 5.25334 59.011 5.26428C59.0224 5.27521 59.1808 5.20467 59.3632 5.10798C59.5457 5.01107 59.6674 4.93195 59.6336 4.93217C59.6 4.93238 59.4416 5.00271 59.2816 5.08847ZM56.3855 5.47546L55.9585 5.90341L56.4027 5.49197C56.8149 5.10969 56.8746 5.04773 56.8296 5.04773C56.8203 5.04773 56.6205 5.24026 56.3855 5.47546ZM65.638 5.18623C65.9303 5.37834 66.0959 5.47225 66.0959 5.44588C66.0959 5.40857 65.6217 5.10669 65.5628 5.10669C65.5378 5.10669 65.5717 5.1425 65.638 5.18623ZM3.18932 5.54943C3.30369 5.66307 3.41093 5.7559 3.42784 5.7559C3.44453 5.7559 3.36488 5.66307 3.25051 5.54943C3.13637 5.4358 3.02912 5.34275 3.01221 5.34275C2.9953 5.34275 3.07518 5.4358 3.18932 5.54943ZM35.4389 5.69694C35.5704 5.82666 35.6919 5.933 35.7088 5.933C35.7255 5.933 35.6316 5.82666 35.5001 5.69694C35.3686 5.56701 35.2471 5.46088 35.2302 5.46088C35.2133 5.46088 35.3072 5.56701 35.4389 5.69694ZM57.9433 5.98596C57.7581 6.14505 57.5018 6.40404 57.3739 6.56142C57.1471 6.84036 57.1489 6.8395 57.4471 6.52411C57.6153 6.34616 57.8867 6.0878 58.05 5.94994C58.2136 5.81208 58.3322 5.69887 58.3137 5.69802C58.295 5.69737 58.1284 5.82709 57.9433 5.98596ZM3.92424 6.33136C4.20326 6.63174 4.44667 6.87745 4.46514 6.87745C4.50474 6.87745 4.2749 6.63131 3.77784 6.14119C3.57914 5.94565 3.645 6.0312 3.92424 6.33136ZM35.837 6.12854C35.837 6.13861 35.9266 6.22502 36.0361 6.32043L36.2353 6.49366L36.0552 6.30199C35.8875 6.12318 35.837 6.08287 35.837 6.12854ZM67.4102 6.6118C67.792 7.07405 67.8808 7.15317 67.6285 6.80626C67.5174 6.65361 67.3572 6.46772 67.2722 6.39311C67.1875 6.31871 67.2495 6.41691 67.4102 6.6118ZM55.354 6.71514C55.0719 7.14159 54.9322 7.41324 54.974 7.45333C54.9933 7.47199 55.0091 7.46062 55.0091 7.42782C55.0091 7.39523 55.1442 7.15167 55.3095 6.88688C55.643 6.35194 55.6746 6.23016 55.354 6.71514ZM69.39 6.75524C69.5144 6.94756 69.6258 7.09592 69.6374 7.08478C69.6628 7.06033 69.2338 6.40512 69.1924 6.40512C69.1766 6.40512 69.2656 6.5627 69.39 6.75524ZM36.7786 7.1313C37.0438 7.41367 37.2741 7.64458 37.2903 7.64458C37.3304 7.64458 36.4533 6.70935 36.3656 6.65833C36.3276 6.63603 36.5134 6.84893 36.7786 7.1313ZM34.459 6.87702C34.4386 6.90918 34.4526 6.98207 34.4904 7.03932C34.5516 7.13151 34.556 7.12873 34.5309 7.01338C34.512 6.92697 34.5362 6.87509 34.6032 6.85772C34.694 6.83457 34.6938 6.83135 34.6003 6.82513C34.5434 6.82149 34.4797 6.84464 34.459 6.87702ZM56.8853 7.18726C56.6443 7.55174 56.4638 7.88085 56.5052 7.88085C56.5213 7.88085 56.6332 7.71469 56.7538 7.51187C56.8744 7.30904 57.017 7.08327 57.0706 7.01016C57.124 6.93705 57.1503 6.87745 57.1289 6.87745C57.1075 6.87745 56.9978 7.01681 56.8853 7.18726ZM35.1027 7.40938C35.3461 7.66967 35.5764 7.90058 35.6147 7.92288C35.6527 7.94496 35.467 7.73206 35.2017 7.44969C34.9363 7.16732 34.706 6.93641 34.6898 6.93641C34.6735 6.93641 34.8593 7.14931 35.1027 7.40938ZM4.59819 7.03203C4.59819 7.06312 4.74282 7.22028 4.91971 7.38129L5.24144 7.67417L4.93506 7.35085C4.76663 7.17289 4.622 7.01574 4.61355 7.00159C4.60509 6.98744 4.59819 7.00116 4.59819 7.03203ZM3.06428 7.48228C3.21447 7.63665 3.34552 7.76272 3.35531 7.76272C3.40114 7.76272 3.35264 7.70976 3.08208 7.46513L2.79127 7.20205L3.06428 7.48228ZM69.7765 7.37915C69.7765 7.41152 69.843 7.55753 69.924 7.70376C70.0052 7.84976 70.0717 7.94282 70.0717 7.91023C70.0717 7.87785 70.0052 7.73184 69.924 7.58562C69.843 7.43961 69.7765 7.34656 69.7765 7.37915ZM5.39452 7.91023C5.50866 8.02386 5.61613 8.11691 5.63282 8.11691C5.64973 8.11691 5.57007 8.02386 5.45571 7.91023C5.34134 7.79659 5.2341 7.70376 5.21719 7.70376C5.2005 7.70376 5.28016 7.79659 5.39452 7.91023ZM37.5974 8.01357C38.2286 8.66535 38.5179 8.94601 38.2502 8.64692C37.7723 8.11262 37.3765 7.70376 37.3373 7.70376C37.3153 7.70376 37.4323 7.84312 37.5974 8.01357ZM54.6502 8.06438C54.5782 8.23183 54.5203 8.39842 54.5216 8.43466C54.523 8.47089 54.592 8.34332 54.6747 8.15122C54.7575 7.95911 54.8153 7.79252 54.8033 7.78094C54.7913 7.76936 54.7226 7.89693 54.6502 8.06438ZM3.84214 8.34739C4.10647 8.63641 4.35923 8.88876 4.40395 8.90806C4.44867 8.92735 4.24442 8.69065 3.95027 8.38234C3.27476 7.67481 3.20757 7.65294 3.84214 8.34739ZM68.3238 7.93981C68.3776 8.13149 68.5627 8.5335 68.5865 8.51055C68.6003 8.49726 68.5414 8.34332 68.4553 8.1688C68.3694 7.99406 68.3102 7.89114 68.3238 7.93981ZM56.3666 8.0899C56.264 8.30687 56.2836 8.35318 56.3944 8.15593C56.4463 8.06374 56.4772 7.97733 56.4632 7.96383C56.4492 7.95032 56.4058 8.00714 56.3666 8.0899ZM35.8677 8.23483C35.9992 8.36476 36.1207 8.4711 36.1376 8.4711C36.1543 8.4711 36.0604 8.36476 35.9289 8.23483C35.7974 8.10512 35.6759 7.99877 35.659 7.99877C35.6421 7.99877 35.736 8.10512 35.8677 8.23483ZM5.91517 8.4711C6.08093 8.63341 6.23045 8.76612 6.24736 8.76612C6.26427 8.76612 6.14234 8.63341 5.97636 8.4711C5.81037 8.3088 5.66085 8.17587 5.64417 8.17587C5.62726 8.17587 5.74919 8.3088 5.91517 8.4711ZM56.1828 8.50305C56.1437 8.58581 56.1127 8.68551 56.1141 8.72474C56.1154 8.76376 56.157 8.70523 56.2069 8.59482C56.3114 8.3624 56.2894 8.27771 56.1828 8.50305ZM68.6164 8.64799C68.6164 8.69687 68.6535 8.82959 68.6991 8.94322C68.7445 9.05686 68.7817 9.11003 68.7817 9.06136C68.7817 9.01247 68.7445 8.87976 68.6991 8.76612C68.6535 8.65249 68.6164 8.59932 68.6164 8.64799ZM36.4802 8.88426C36.6117 9.01397 36.7332 9.12032 36.7501 9.12032C36.7668 9.12032 36.6729 9.01397 36.5414 8.88426C36.4099 8.75433 36.2884 8.64799 36.2715 8.64799C36.2546 8.64799 36.3485 8.75433 36.4802 8.88426ZM70.3596 8.85467C70.4099 9.07165 70.4451 9.11882 70.4437 8.96788C70.4433 8.90549 70.4148 8.81479 70.3806 8.76612C70.3352 8.70137 70.3296 8.72539 70.3596 8.85467ZM54.3735 8.85703C54.3525 8.90977 54.3376 8.99725 54.3405 9.05128C54.3434 9.10552 54.3701 9.07143 54.3997 8.97559C54.4576 8.78949 54.4371 8.6973 54.3735 8.85703ZM6.50012 9.09395C6.65009 9.25796 6.78515 9.38318 6.80028 9.37224C6.81563 9.36109 6.69281 9.22709 6.52771 9.07401L6.22756 8.79571L6.50012 9.09395ZM4.92727 9.49231C5.19249 9.77468 5.42278 10.0056 5.43902 10.0056C5.47907 10.0056 4.60198 9.07036 4.51431 9.01912C4.47626 8.99704 4.66205 9.20994 4.92727 9.49231ZM38.8078 9.29742C38.9393 9.42713 39.0608 9.53347 39.0777 9.53347C39.0944 9.53347 39.0005 9.42713 38.869 9.29742C38.7375 9.16749 38.616 9.06136 38.5991 9.06136C38.5822 9.06136 38.6761 9.16749 38.8078 9.29742ZM70.4569 9.20887C70.4569 9.27383 70.4789 9.39325 70.5061 9.47451C70.5448 9.59136 70.555 9.59737 70.555 9.50389C70.555 9.43892 70.533 9.3195 70.5061 9.23824C70.4671 9.12139 70.4569 9.11539 70.4569 9.20887ZM36.9982 9.43013C37.1484 9.58429 37.2794 9.71057 37.2892 9.71057C37.3353 9.71057 37.2866 9.65761 37.016 9.41298L36.7252 9.14969L36.9982 9.43013ZM54.2469 9.38918C54.2237 9.50753 54.217 9.61623 54.2322 9.63081C54.2471 9.64518 54.2782 9.56006 54.3014 9.44171C54.3243 9.32314 54.331 9.21444 54.3161 9.20008C54.3009 9.1855 54.2698 9.27061 54.2469 9.38918ZM68.7995 9.23824C68.7995 9.28691 68.8233 9.37996 68.8522 9.44492C68.8854 9.51932 68.9047 9.53026 68.9047 9.47451C68.9047 9.42563 68.8811 9.33279 68.8522 9.26783C68.8191 9.19343 68.7995 9.1825 68.7995 9.23824ZM6.92577 9.55191C6.92577 9.56199 7.01543 9.64839 7.1249 9.7438L7.32382 9.91704L7.14404 9.72536C6.97627 9.54655 6.92577 9.50624 6.92577 9.55191ZM70.5839 9.88767C70.5839 10.0337 70.5959 10.0935 70.6104 10.0204C70.6251 9.94727 70.6251 9.82785 70.6104 9.75474C70.5959 9.68184 70.5839 9.74144 70.5839 9.88767ZM39.561 10.1089C39.763 10.3281 40.1399 10.7198 40.3985 10.9796C40.657 11.2393 40.503 11.06 40.0567 10.581C39.6104 10.1023 39.2334 9.71057 39.2192 9.71057C39.205 9.71057 39.3587 9.88981 39.561 10.1089ZM54.1683 9.94663C54.1683 10.0926 54.1801 10.1525 54.1948 10.0793C54.2093 10.0064 54.2093 9.88681 54.1948 9.8137C54.1801 9.7408 54.1683 9.80062 54.1683 9.94663ZM7.35452 9.98372C7.35452 10.015 7.47178 10.1456 7.61485 10.274L7.87517 10.5073L7.6302 10.2427C7.49537 10.0971 7.37833 9.96635 7.36988 9.95242C7.36142 9.93848 7.35452 9.95263 7.35452 9.98372ZM69.0053 11.0386C69.0053 11.6093 69.0231 11.9275 69.0467 11.7763C69.0992 11.4402 69.0987 10.7144 69.0458 10.3302C69.0222 10.158 69.0053 10.4528 69.0053 11.0386ZM5.57831 10.2011C5.57831 10.2114 5.66775 10.2976 5.77722 10.393L5.97636 10.5663L5.79636 10.3746C5.62881 10.1958 5.57831 10.1557 5.57831 10.2011ZM55.7236 10.6992C55.7036 10.9833 55.7078 11.3883 55.7329 11.5992C55.7688 11.9018 55.779 11.7924 55.7817 11.0827C55.7854 10.0493 55.7743 9.97621 55.7236 10.6992ZM38.04 10.5633C38.2242 10.7436 38.3866 10.8911 38.4008 10.8911C38.4525 10.8911 37.8866 10.3139 37.797 10.2751C37.7465 10.2532 37.8559 10.3829 38.04 10.5633ZM70.6476 10.5663C70.6478 10.7611 70.6591 10.8336 70.6729 10.7277C70.6865 10.6216 70.6863 10.4623 70.6723 10.3735C70.6582 10.2847 70.6471 10.3716 70.6476 10.5663ZM54.1142 11.068C54.1142 11.5062 54.1238 11.6857 54.1356 11.4665C54.1474 11.2474 54.1474 10.8887 54.1356 10.6696C54.1238 10.4505 54.1142 10.6297 54.1142 11.068ZM8.02825 10.7433C8.14262 10.857 8.24986 10.95 8.26677 10.95C8.28368 10.95 8.20381 10.857 8.08966 10.7433C7.9753 10.6297 7.86805 10.5369 7.85114 10.5369C7.83423 10.5369 7.91411 10.6297 8.02825 10.7433ZM6.22133 10.8911C6.38732 11.0534 6.53483 11.1861 6.5493 11.1861C6.60114 11.1861 6.03621 10.6076 5.97858 10.6018C5.94632 10.5986 6.05557 10.7288 6.22133 10.8911ZM38.6278 11.1878C38.7646 11.333 39.0238 11.5977 39.2036 11.7763C39.4119 11.9828 39.3741 11.9292 39.0997 11.6288C38.8625 11.369 38.6033 11.1042 38.5237 11.0403C38.444 10.9762 38.491 11.0427 38.6278 11.1878ZM70.668 11.1696C70.6471 11.2922 70.6331 11.5122 70.6373 11.6582C70.6427 11.8477 70.6596 11.7894 70.6961 11.455C70.7499 10.9614 70.7332 10.7901 70.668 11.1696ZM8.61032 11.3632C8.74181 11.4931 8.8633 11.5992 8.88021 11.5992C8.89689 11.5992 8.803 11.4931 8.6715 11.3632C8.53978 11.2333 8.41852 11.1271 8.40161 11.1271C8.3847 11.1271 8.4786 11.2333 8.61032 11.3632ZM6.89951 11.6048C6.9983 11.7215 7.09131 11.807 7.10644 11.7948C7.12157 11.7826 7.0408 11.6872 6.9271 11.5825L6.72018 11.3928L6.89951 11.6048ZM40.8597 11.4998C40.8597 11.5098 40.9494 11.5962 41.0588 11.6914L41.2577 11.8649L41.078 11.673C40.9102 11.4942 40.8597 11.4541 40.8597 11.4998ZM8.94718 11.6972C8.94718 11.7172 9.05732 11.8488 9.19215 11.9897C9.32699 12.1305 9.43712 12.2296 9.43712 12.2094C9.43712 12.1895 9.32699 12.0579 9.19215 11.917C9.05732 11.7761 8.94718 11.6773 8.94718 11.6972ZM7.66091 12.4256C7.9377 12.7178 8.17777 12.9568 8.19468 12.9568C8.21159 12.9568 7.99888 12.7178 7.72209 12.4256C7.4453 12.1333 7.205 11.8945 7.18809 11.8945C7.17141 11.8945 7.38412 12.1333 7.66091 12.4256ZM41.3496 11.9916C41.3496 12.0233 41.4393 12.1273 41.5488 12.2227L41.7479 12.3962L41.5641 12.1897C41.4631 12.0763 41.3734 11.9723 41.365 11.9586C41.3565 11.9449 41.3496 11.9597 41.3496 11.9916ZM54.1683 12.1895C54.1683 12.3355 54.1801 12.3953 54.1948 12.3222C54.2093 12.2493 54.2093 12.1297 54.1948 12.0568C54.1801 11.9837 54.1683 12.0435 54.1683 12.1895ZM70.5826 12.2191C70.5833 12.3488 70.5959 12.3951 70.6106 12.3216C70.6253 12.2482 70.6246 12.1419 70.6093 12.0855C70.5939 12.0291 70.5819 12.0892 70.5826 12.2191ZM39.6718 12.3222C39.7728 12.4279 40.0169 12.6734 40.214 12.8683C40.4111 13.063 40.3446 12.9768 40.0663 12.6764C39.7879 12.3762 39.5441 12.1305 39.5243 12.1305C39.5042 12.1305 39.5708 12.2167 39.6718 12.3222ZM9.77399 12.6027C9.90571 12.7326 10.027 12.8387 10.0439 12.8387C10.0608 12.8387 9.9669 12.7326 9.83518 12.6027C9.70368 12.4727 9.5822 12.3666 9.56551 12.3666C9.5486 12.3666 9.64249 12.4727 9.77399 12.6027ZM54.2251 12.5731C54.2251 12.638 54.2471 12.7577 54.274 12.8387C54.3129 12.9556 54.3232 12.9618 54.3232 12.8683C54.3232 12.8033 54.3009 12.6839 54.274 12.6027C54.2353 12.4858 54.2251 12.4796 54.2251 12.5731ZM55.9067 12.6912C55.9274 12.8211 55.9543 12.9384 55.9666 12.9519C56.0131 13.0025 55.9784 12.6865 55.9249 12.5731C55.8862 12.491 55.8809 12.5268 55.9067 12.6912ZM42.146 12.8683C42.3291 13.0469 42.4924 13.1929 42.5093 13.1929C42.5262 13.1929 42.3903 13.0469 42.2074 12.8683C42.0243 12.6897 41.8607 12.5437 41.844 12.5437C41.8271 12.5437 41.9631 12.6897 42.146 12.8683ZM70.4753 12.7208C70.452 12.8228 70.4458 12.9185 70.4613 12.9335C70.4771 12.9487 70.5074 12.876 70.529 12.7725C70.5799 12.5263 70.5305 12.4787 70.4753 12.7208ZM68.826 12.7545C68.8035 12.8409 68.7968 12.9232 68.8113 12.9369C68.8257 12.9508 68.8558 12.8915 68.8785 12.805C68.9009 12.7184 68.9076 12.6363 68.8931 12.6224C68.8787 12.6087 68.8484 12.668 68.826 12.7545ZM10.506 13.3848C10.7712 13.6689 11.0004 13.9011 11.0153 13.9011C11.0543 13.9011 10.3349 13.1262 10.166 12.9862C10.0877 12.9215 10.2406 13.1007 10.506 13.3848ZM70.3572 13.2266C70.3347 13.3132 70.328 13.3953 70.3425 13.4092C70.357 13.4232 70.3872 13.3638 70.4097 13.2772C70.4322 13.1908 70.4389 13.1086 70.4244 13.0947C70.4099 13.0808 70.3797 13.1402 70.3572 13.2266ZM40.7678 13.4879C40.8995 13.6179 41.0186 13.7242 41.0324 13.7242C41.084 13.7242 40.6432 13.2617 40.5869 13.257C40.5549 13.2542 40.6363 13.3582 40.7678 13.4879ZM42.5747 13.2832C42.5747 13.3053 42.6437 13.4024 42.728 13.4989C42.8121 13.5953 42.8811 13.656 42.8811 13.6339C42.8811 13.6116 42.8121 13.5147 42.728 13.4182C42.6437 13.3218 42.5747 13.2611 42.5747 13.2832ZM68.4947 13.7561C68.3919 13.9731 68.4114 14.0194 68.5225 13.8222C68.5743 13.73 68.6052 13.6436 68.5912 13.6301C68.5772 13.6166 68.5338 13.6734 68.4947 13.7561ZM9.17969 14.0636C9.38172 14.2827 9.75864 14.6744 10.0172 14.9341C10.2757 15.1937 10.1218 15.0145 9.67542 14.5357C9.22909 14.057 8.85217 13.665 8.83793 13.665C8.82369 13.665 8.97744 13.8445 9.17969 14.0636ZM41.2577 14.0192C41.3895 14.1491 41.511 14.2553 41.5276 14.2553C41.5445 14.2553 41.4507 14.1491 41.3192 14.0192C41.1874 13.8893 41.0662 13.7832 41.0493 13.7832C41.0324 13.7832 41.1262 13.8893 41.2577 14.0192ZM43.218 14.0192C43.3495 14.1491 43.471 14.2553 43.4879 14.2553C43.5046 14.2553 43.4109 14.1491 43.2792 14.0192C43.1477 13.8893 43.0262 13.7832 43.0093 13.7832C42.9926 13.7832 43.0863 13.8893 43.218 14.0192ZM56.2996 13.8717C56.2996 13.9041 56.339 13.9971 56.3873 14.0782C56.4354 14.1594 56.4748 14.1993 56.4748 14.1667C56.4748 14.1344 56.4354 14.0413 56.3873 13.9603C56.339 13.879 56.2996 13.8391 56.2996 13.8717ZM54.646 14.0192C54.6458 14.1043 54.8187 14.4422 54.8231 14.3655C54.8242 14.3447 54.7851 14.2386 54.7359 14.1292C54.6865 14.0201 54.6462 13.9705 54.646 14.0192ZM70.0259 14.1693C69.9233 14.3863 69.9429 14.4326 70.0539 14.2353C70.1056 14.1431 70.1365 14.0567 70.1227 14.0432C70.1087 14.0297 70.0651 14.0865 70.0259 14.1693ZM11.3666 14.3144C11.4981 14.4442 11.6196 14.5505 11.6365 14.5505C11.6532 14.5505 11.5593 14.4442 11.4278 14.3144C11.2963 14.1845 11.1749 14.0782 11.1579 14.0782C11.141 14.0782 11.2349 14.1845 11.3666 14.3144ZM56.6256 14.5233C56.7164 14.6869 56.8588 14.8993 56.9418 14.9954C57.0248 15.0914 56.97 14.9748 56.8203 14.736C56.495 14.2178 56.3953 14.1088 56.6256 14.5233ZM43.7079 14.5505C43.8396 14.6802 43.9587 14.7866 43.9725 14.7866C44.0241 14.7866 43.5833 14.3241 43.527 14.3194C43.495 14.3166 43.5764 14.4206 43.7079 14.5505ZM41.8703 14.6684C42.002 14.7984 42.1235 14.9045 42.1402 14.9045C42.1571 14.9045 42.0632 14.7984 41.9317 14.6684C41.8 14.5387 41.6787 14.4324 41.6618 14.4324C41.6449 14.4324 41.7388 14.5387 41.8703 14.6684ZM69.7834 14.6993C69.7099 14.8447 69.663 14.9637 69.6786 14.9637C69.7202 14.9637 69.9676 14.4843 69.94 14.4575C69.9271 14.445 69.8566 14.5539 69.7834 14.6993ZM12.0382 15.0078C12.3434 15.3191 12.4384 15.3764 12.4384 15.2488C12.4384 15.2111 12.4195 15.1984 12.3962 15.2207C12.373 15.2432 12.2144 15.1348 12.0439 14.9797L11.7342 14.698L12.0382 15.0078ZM67.7497 15.0816C67.6776 15.1791 67.6325 15.2587 67.6494 15.2587C67.6663 15.2587 67.7388 15.1791 67.8109 15.0816C67.8828 14.9842 67.9279 14.9045 67.911 14.9045C67.8943 14.9045 67.8216 14.9842 67.7497 15.0816ZM42.2074 14.9819C42.2074 15.0003 42.3175 15.1382 42.4524 15.2883C42.587 15.4383 42.6962 15.5395 42.6949 15.5132C42.692 15.4587 42.2074 14.9304 42.2074 14.9819ZM44.2989 15.168C44.4651 15.3365 44.5995 15.3292 44.5919 15.1519C44.5881 15.064 44.5823 15.0649 44.5436 15.1592C44.5025 15.26 44.4893 15.2585 44.3182 15.135L44.1367 15.004L44.2989 15.168ZM55.1326 15.0443C55.1311 15.1157 55.6749 15.8963 55.7623 15.9484C55.8019 15.972 55.7363 15.8594 55.6166 15.6986C55.4966 15.5378 55.3391 15.3134 55.2661 15.1997C55.1934 15.0861 55.1331 15.0162 55.1326 15.0443ZM57.2063 15.3472C57.3688 15.5769 57.8267 16.0595 57.8267 16.0009C57.8267 15.9761 57.7185 15.8455 57.5866 15.7106C57.4544 15.5758 57.2866 15.3989 57.2137 15.3179L57.0811 15.1701L57.2063 15.3472ZM10.4784 15.4542C10.4784 15.4645 10.5681 15.5507 10.6776 15.6461L10.8765 15.8193L10.6967 15.6277C10.5289 15.4489 10.4784 15.4088 10.4784 15.4542ZM43.032 15.9079C43.1971 16.0865 43.3446 16.2458 43.3599 16.2621C43.3751 16.2784 43.3586 16.2385 43.323 16.1735C43.2874 16.1086 43.1399 15.9493 42.9953 15.8193C42.7358 15.5867 42.7363 15.588 43.032 15.9079ZM69.0972 15.79C69.0251 15.8873 68.9801 15.9671 68.9971 15.9671C69.0137 15.9671 69.0865 15.8873 69.1584 15.79C69.2305 15.6926 69.2754 15.6129 69.2587 15.6129C69.2418 15.6129 69.169 15.6926 69.0972 15.79ZM66.9656 15.9752C66.7872 16.1407 66.651 16.2855 66.663 16.297C66.675 16.3088 66.8339 16.1729 67.0161 15.9952C67.4331 15.5882 67.3982 15.5745 66.9656 15.9752ZM11.1829 16.2031C11.3144 16.3331 11.4358 16.4392 11.4528 16.4392C11.4694 16.4392 11.3758 16.3331 11.244 16.2031C11.1126 16.0732 10.9911 15.9671 10.9742 15.9671C10.9575 15.9671 11.0511 16.0732 11.1829 16.2031ZM57.8878 16.0445C57.8878 16.0548 57.9775 16.141 58.087 16.2364L58.2861 16.4096L58.1061 16.2179C57.9386 16.0391 57.8878 15.9988 57.8878 16.0445ZM68.7254 16.2473C68.3747 16.6122 68.2165 16.7934 68.2488 16.7934C68.2655 16.7934 68.4375 16.6208 68.6308 16.4096C69.0093 15.9971 69.0754 15.8835 68.7254 16.2473ZM43.5849 16.4984C43.8755 16.8255 43.8795 16.829 43.8129 16.7048C43.7782 16.6399 43.6714 16.5204 43.5758 16.4394L43.4018 16.2921L43.5849 16.4984ZM66.3101 16.5061C65.9479 16.7674 65.9001 16.8384 66.2305 16.6242C66.3887 16.5217 66.5351 16.4115 66.5556 16.3794C66.6096 16.2955 66.5831 16.309 66.3101 16.5061ZM56.485 16.7417C56.9927 17.2145 57.1529 17.3513 57.1529 17.3114C57.1529 17.2942 56.9117 17.0742 56.6169 16.8228C56.1717 16.4426 56.1492 16.4289 56.485 16.7417ZM58.4835 16.546C58.6532 16.6877 59.2605 17.0481 59.1743 16.9561C59.1574 16.9381 58.9507 16.8013 58.7149 16.6523C58.479 16.5031 58.3749 16.4553 58.4835 16.546ZM12.0221 17.1116C12.268 17.3838 12.507 17.6233 12.5532 17.6437C12.5995 17.6639 12.4104 17.4411 12.1332 17.1484C11.4986 16.4786 11.4307 16.4561 12.0221 17.1116ZM43.9224 16.8305C43.9224 16.8618 44.0394 16.9923 44.1827 17.1208L44.4431 17.354L44.1981 17.0895C44.0632 16.9437 43.946 16.8131 43.9378 16.7992C43.9293 16.7852 43.9224 16.7992 43.9224 16.8305ZM67.7172 17.1652C67.5141 17.3341 67.2798 17.5198 67.1966 17.5779C67.046 17.6832 67.0462 17.6834 67.2291 17.5886C67.4019 17.4992 68.1831 16.8562 68.1171 16.8577C68.1004 16.8581 67.9204 16.9964 67.7172 17.1652ZM65.0239 17.2097C64.889 17.2713 64.8203 17.321 64.8708 17.3206C64.9213 17.32 65.059 17.2687 65.1769 17.2065C65.4522 17.0614 65.3443 17.0637 65.0239 17.2097ZM57.2141 17.3461C57.2141 17.3622 57.2969 17.4323 57.3979 17.5016C57.4989 17.571 57.5817 17.6143 57.5817 17.5982C57.5817 17.582 57.4989 17.5118 57.3979 17.4426C57.2969 17.3733 57.2141 17.3298 57.2141 17.3461ZM44.6268 17.6197C44.7583 17.7496 44.8798 17.8557 44.8965 17.8557C44.9134 17.8557 44.8195 17.7496 44.688 17.6197C44.5563 17.4898 44.435 17.3836 44.4181 17.3836C44.4012 17.3836 44.4951 17.4898 44.6268 17.6197ZM46.0896 18.1804C46.0898 18.5699 46.0996 18.7217 46.1116 18.5174C46.1236 18.3133 46.1236 17.9947 46.1114 17.8092C46.0993 17.6238 46.0896 17.7908 46.0896 18.1804ZM63.86 17.5607C63.6933 17.6015 63.6904 17.606 63.8295 17.6085C63.9136 17.61 64.0378 17.5886 64.1052 17.5607C64.256 17.4981 64.1152 17.4981 63.86 17.5607ZM60.9813 17.6195C61.1159 17.6491 61.5157 17.6862 61.8693 17.7018C62.4965 17.7295 62.4996 17.729 61.9919 17.6829C61.7055 17.657 61.3059 17.6199 61.1036 17.6006C60.7968 17.5714 60.7766 17.5744 60.9813 17.6195ZM63.3249 17.6615C63.401 17.6754 63.5113 17.675 63.5698 17.6602C63.6284 17.6454 63.566 17.6338 63.4312 17.6345C63.2966 17.6351 63.2485 17.6473 63.3249 17.6615ZM62.6809 17.7209C62.7735 17.7344 62.9252 17.7344 63.0178 17.7209C63.1106 17.7074 63.0347 17.6964 62.8494 17.6964C62.664 17.6964 62.5884 17.7074 62.6809 17.7209ZM12.8403 17.9705C13.5939 18.8156 13.971 19.1175 13.9688 18.8739C13.9681 18.7852 13.9592 18.7833 13.9063 18.8592C13.856 18.9312 13.7332 18.8369 13.2488 18.354C12.921 18.0275 12.7372 17.8549 12.8403 17.9705ZM57.9493 17.8238C57.9493 17.8401 58.0594 17.9076 58.1942 17.9739C58.3291 18.0401 58.4392 18.0811 58.4392 18.0648C58.4392 18.0485 58.3291 17.981 58.1942 17.9147C58.0594 17.8485 57.9493 17.8077 57.9493 17.8238ZM66.5705 17.9188C66.4441 17.9831 66.3408 18.0489 66.3408 18.065C66.3408 18.0811 66.451 18.0401 66.5858 17.9739C66.7207 17.9076 66.8308 17.8405 66.8308 17.8251C66.8308 17.7865 66.8303 17.7865 66.5705 17.9188ZM45.1448 18.1656C45.295 18.3199 45.4261 18.446 45.4359 18.446C45.4817 18.446 45.4332 18.393 45.1626 18.1484L44.8718 17.8853L45.1448 18.1656ZM13.9227 18.2689C13.9227 18.3825 13.9354 18.4291 13.9508 18.3722C13.9661 18.3154 13.9661 18.2224 13.9508 18.1656C13.9354 18.1087 13.9227 18.1553 13.9227 18.2689ZM65.9121 18.2393C65.7604 18.3176 65.664 18.3817 65.6976 18.3817C65.7314 18.3817 65.8829 18.3176 66.0345 18.2393C66.1862 18.1613 66.2826 18.0972 66.249 18.0972C66.2151 18.0972 66.0636 18.1613 65.9121 18.2393ZM58.623 18.1789C58.623 18.2256 59.0671 18.392 59.102 18.3583C59.1192 18.3416 59.1185 18.3279 59.1 18.3279C59.0818 18.3279 58.9668 18.2878 58.8448 18.2387C58.7229 18.1896 58.623 18.1626 58.623 18.1789ZM45.6962 18.7558C45.9721 19.0392 46.0662 19.0931 46.0662 18.9674C46.0662 18.9295 46.0473 18.9168 46.0239 18.9391C46.0008 18.9616 45.8559 18.8664 45.7024 18.7277L45.4229 18.4756L45.6962 18.7558ZM59.8174 18.6231C59.8848 18.651 59.9814 18.6737 60.0319 18.6737C60.0897 18.6737 60.0784 18.655 60.0012 18.6231C59.9337 18.5952 59.8374 18.5723 59.7867 18.5723C59.7288 18.5723 59.7402 18.5912 59.8174 18.6231ZM60.6137 18.8002C60.6811 18.8281 60.7913 18.8501 60.8587 18.8491C60.9572 18.8478 60.9512 18.8381 60.828 18.8002C60.6186 18.7354 60.4575 18.7354 60.6137 18.8002ZM63.9519 18.8002C63.8288 18.8381 63.8228 18.8478 63.9214 18.8491C63.9888 18.8501 64.0989 18.8281 64.1664 18.8002C64.3223 18.7354 64.1615 18.7354 63.9519 18.8002ZM61.3028 18.9007C61.3787 18.9149 61.5026 18.9149 61.5785 18.9007C61.6541 18.8868 61.5923 18.8752 61.4405 18.8752C61.289 18.8752 61.2269 18.8868 61.3028 18.9007ZM63.233 18.9016C63.3262 18.9151 63.4639 18.9147 63.5394 18.9007C63.6148 18.8868 63.5385 18.8757 63.37 18.8761C63.2016 18.8765 63.14 18.8879 63.233 18.9016ZM62.1928 18.9616C62.3539 18.9739 62.602 18.9736 62.7441 18.9614C62.8863 18.949 62.7544 18.9389 62.4513 18.9391C62.1481 18.9393 62.0317 18.9494 62.1928 18.9616ZM62.6963 20.2753L70.4142 20.3053L70.4333 20.5965C70.4437 20.7566 70.4364 20.9492 70.4168 21.0244L70.3812 21.161L62.6186 21.1601C58.3491 21.1597 54.8229 21.1391 54.7826 21.1145C54.7424 21.0896 54.6994 20.8975 54.6872 20.6874L54.6652 20.3053L54.6534 20.7015C54.6433 21.0398 54.6589 21.107 54.7599 21.1591C55.0154 21.2907 70.3688 21.2386 70.4426 21.1059C70.5116 20.9817 70.5287 20.4605 70.4689 20.31C70.4351 20.2255 69.7028 20.218 62.705 20.2311L54.9784 20.2455L62.6963 20.2753ZM49.818 32.1824C49.9441 32.1952 50.1511 32.1952 50.2772 32.1824C50.4036 32.1697 50.3004 32.1592 50.0476 32.1592C49.7948 32.1592 49.6916 32.1697 49.818 32.1824ZM49.1594 32.2574C49.0034 32.3222 49.1643 32.3222 49.3739 32.2574C49.4969 32.2195 49.5029 32.2098 49.4044 32.2085C49.3372 32.2077 49.2268 32.2295 49.1594 32.2574ZM50.7213 32.2574C50.9307 32.3222 51.0918 32.3222 50.9358 32.2574C50.8684 32.2295 50.7581 32.2077 50.6909 32.2085C50.5923 32.2098 50.5983 32.2195 50.7213 32.2574ZM18.5919 32.5083C18.5759 32.549 18.5699 34.5743 18.5785 37.009L18.5943 41.4356L18.9007 41.4403L19.2069 41.4448L18.9161 41.4225L18.625 41.4V36.9498V32.4995L18.9773 32.4783L19.3295 32.4568L18.9753 32.4457C18.7394 32.4384 18.6115 32.4592 18.5919 32.5083ZM19.4198 32.4735C19.4608 32.493 19.4826 33.1877 19.4826 34.4758C19.4826 36.624 19.495 36.6913 19.8252 36.3154C19.9418 36.1827 19.9418 36.1827 19.8145 36.2858C19.5484 36.5017 19.5462 36.4878 19.5293 34.4315C19.5168 32.9021 19.4961 32.4705 19.4352 32.4587C19.3922 32.4504 19.3853 32.457 19.4198 32.4735ZM24.1377 32.4765C24.6408 32.5068 24.6719 32.5276 24.499 32.7165L24.3522 32.8773L24.5162 32.7381C24.7741 32.5194 24.6826 32.4328 24.2078 32.4455C23.8028 32.4564 23.8026 32.4566 24.1377 32.4765ZM29.1887 32.5083C29.1727 32.549 29.1666 34.5477 29.1755 36.9498L29.1918 41.3177L29.2067 36.91C29.2207 32.7688 29.2283 32.5006 29.3289 32.4753C29.4294 32.45 29.4292 32.4478 29.3271 32.4414C29.267 32.4377 29.2047 32.4678 29.1887 32.5083ZM29.5433 32.4753C29.6023 32.49 29.6986 32.49 29.7576 32.4753C29.8166 32.4605 29.7685 32.4482 29.6506 32.4482C29.5327 32.4482 29.4844 32.4605 29.5433 32.4753ZM36.2811 32.4787C36.7105 32.4888 37.4134 32.4888 37.843 32.4787C38.2725 32.4686 37.9211 32.4602 37.0621 32.4602C36.203 32.4602 35.8514 32.4686 36.2811 32.4787ZM38.9302 32.5527C39.1894 32.6161 39.4117 32.6161 39.2059 32.5527C39.1217 32.5267 38.9838 32.5059 38.8997 32.5066C38.7622 32.5074 38.7653 32.5121 38.9302 32.5527ZM35.4994 36.9786C35.5001 40.8966 35.5112 41.4349 35.592 41.4405C35.6441 41.4442 35.6507 41.4365 35.6076 41.4223C35.548 41.403 35.5279 40.4343 35.5152 36.9604L35.499 32.5231L35.4994 36.9786ZM22.942 33.0985L22.4534 33.5856L22.9587 33.1148C23.4279 32.6774 23.492 32.6116 23.4473 32.6116C23.4379 32.6116 23.2105 32.8307 22.942 33.0985ZM48.1074 32.8625C47.9697 33.0005 47.8255 33.1798 47.7872 33.2608C47.7274 33.3875 47.7285 33.392 47.7952 33.2936C47.8382 33.2304 47.9942 33.0511 48.1419 32.8953C48.4741 32.5445 48.4489 32.5207 48.1074 32.8625ZM51.8427 32.7306C51.9373 32.8033 52.1097 32.9984 52.2257 33.1643C52.3416 33.3301 52.4364 33.4396 52.4361 33.4077C52.4357 33.3076 51.9847 32.7752 51.8238 32.6847C51.6939 32.6118 51.6968 32.6187 51.8427 32.7306ZM30.0942 37.0778C30.0825 40.4665 30.0629 41.4028 30.0026 41.4262C29.9427 41.4495 29.9432 41.4568 30.0046 41.4605C30.1403 41.4686 30.1419 41.409 30.1254 37.0384L30.1092 32.7591L30.0942 37.0778ZM40.0073 32.8091C40.0981 32.8818 40.851 33.236 40.8234 33.1933C40.7881 33.1378 40.0983 32.7887 40.0244 32.7887C40.0008 32.7887 39.9933 32.7979 40.0073 32.8091ZM23.9214 33.2756L23.5559 33.6446L23.9388 33.2923C24.1493 33.0985 24.3215 32.9326 24.3215 32.9234C24.3215 32.8798 24.261 32.933 23.9214 33.2756ZM49.9413 32.9491C50.0343 32.9626 50.1722 32.9624 50.2474 32.9482C50.3228 32.9343 50.2467 32.9231 50.0783 32.9236C49.9099 32.924 49.8483 32.9356 49.9413 32.9491ZM50.5683 33.0235C50.6693 33.0488 50.8072 33.0876 50.8744 33.1101C50.9559 33.1373 50.9456 33.1206 50.8439 33.0606C50.7596 33.0106 50.6219 32.9718 50.5376 32.974C50.3976 32.9776 50.4 32.9817 50.5683 33.0235ZM49.1594 33.1356C48.8232 33.3376 48.4336 33.8502 48.5391 33.9519C48.5535 33.9658 48.5971 33.8841 48.6361 33.7705C48.7013 33.5805 49.0001 33.2735 49.2869 33.1022C49.3514 33.0634 49.3906 33.0303 49.3739 33.0284C49.357 33.0267 49.2604 33.0749 49.1594 33.1356ZM36.4845 33.2355C36.367 33.3489 36.3356 40.4337 36.4517 40.6427C36.5203 40.7662 37.6726 40.8027 38.379 40.7036C38.5475 40.68 38.2071 40.6732 37.6225 40.6882C36.7557 40.7105 36.5499 40.7004 36.5056 40.6329C36.3995 40.4712 36.4362 33.3451 36.5436 33.2591C36.6148 33.2023 36.8669 33.1909 37.5698 33.2132C38.0927 33.2297 38.3537 33.2233 38.1646 33.1984C37.5122 33.1133 36.5904 33.1337 36.4845 33.2355ZM51.2805 33.3946C51.4278 33.5396 51.6053 33.7323 51.675 33.8226L51.8016 33.9868L52.0833 33.8277C52.2381 33.7402 52.3992 33.6287 52.4413 33.5799C52.4835 33.531 52.3692 33.5852 52.1876 33.7006C51.7911 33.9523 51.7925 33.9521 51.661 33.748C51.519 33.5271 51.2665 33.2634 51.1274 33.1909C51.0642 33.1579 51.1332 33.2497 51.2805 33.3946ZM40.9209 33.2767C40.9209 33.2896 41.0312 33.3856 41.1661 33.4898C41.3007 33.5942 41.4104 33.6585 41.4097 33.6326C41.4084 33.5861 40.9209 33.2312 40.9209 33.2767ZM39.0528 33.379C39.1202 33.4068 39.2165 33.4298 39.267 33.4298C39.3251 33.4298 39.3138 33.4109 39.2366 33.379C39.1691 33.3511 39.0726 33.3282 39.0221 33.3282C38.9642 33.3282 38.9756 33.347 39.0528 33.379ZM21.9345 34.1157L21.477 34.5891L21.9623 34.1337C22.2293 33.8835 22.4351 33.6703 22.4198 33.6605C22.4047 33.6506 22.1862 33.8556 21.9345 34.1157ZM47.5745 33.7059C47.5534 33.7587 47.5391 33.8594 47.5425 33.9298C47.5465 34.0106 47.5672 33.9819 47.599 33.8515C47.6526 33.6322 47.6379 33.5462 47.5745 33.7059ZM23.1556 34.0018C22.9716 34.1821 22.8621 34.3118 22.9126 34.29C23.0023 34.2514 23.5681 33.674 23.5165 33.674C23.5022 33.674 23.3398 33.8215 23.1556 34.0018ZM41.656 33.882C41.656 33.9051 41.7319 34.008 41.8245 34.1103C41.917 34.2128 42.0418 34.3624 42.1019 34.4428C42.182 34.5505 42.1949 34.5563 42.1504 34.4647C42.0799 34.3198 41.656 33.8202 41.656 33.882ZM40.6147 34.1058C40.6147 34.1159 40.7044 34.2023 40.8139 34.2975L41.0128 34.4709L40.833 34.279C40.6652 34.1002 40.6147 34.0601 40.6147 34.1058ZM48.4716 34.3234C48.4716 34.4694 48.4837 34.5292 48.4983 34.4561C48.5128 34.383 48.5128 34.2636 48.4983 34.1905C48.4837 34.1176 48.4716 34.1772 48.4716 34.3234ZM21.9318 35.2531L21.1671 36.0056L21.9481 35.2687C22.6734 34.5841 22.7566 34.5005 22.7128 34.5005C22.7037 34.5005 22.3524 34.8391 21.9318 35.2531ZM41.1966 34.7962C41.4823 35.2061 41.531 35.2483 41.3472 34.927C41.268 34.7882 41.1507 34.6292 41.0869 34.5734C41.023 34.5177 41.0724 34.618 41.1966 34.7962ZM47.5405 34.7415C47.5429 34.82 47.5699 34.9372 47.6003 35.0022C47.639 35.0843 47.6446 35.0485 47.6186 34.8841C47.5752 34.6101 47.5343 34.5352 47.5405 34.7415ZM48.5186 34.6656C48.515 34.7809 48.6772 35.0588 48.8032 35.1529C48.9093 35.2323 48.9095 35.2306 48.8098 35.1173C48.7524 35.052 48.6639 34.9064 48.6134 34.7938C48.5626 34.681 48.5199 34.6236 48.5186 34.6656ZM20.587 35.4724C20.2693 35.7799 20.0219 36.0388 20.037 36.0483C20.0522 36.0575 20.3247 35.806 20.6429 35.4893C20.9611 35.1727 21.2087 34.9137 21.1929 34.9137C21.1773 34.9137 20.9048 35.1652 20.587 35.4724ZM41.4745 35.2166C41.4731 35.2372 41.5125 35.3435 41.5617 35.4527C41.6109 35.562 41.6513 35.6115 41.6513 35.5629C41.6516 35.4778 41.4789 35.1399 41.4745 35.2166ZM49.1289 35.4437C49.2468 35.5462 49.3984 35.6581 49.4658 35.6922C49.6282 35.7747 49.5276 35.6862 49.1901 35.4499L48.9144 35.2571L49.1289 35.4437ZM48.2703 35.9158C48.4552 36.0813 48.7033 36.2691 48.8216 36.333C48.983 36.4201 49.001 36.4231 48.8939 36.3454C48.8154 36.2884 48.5673 36.1006 48.3428 35.9282L47.9343 35.6148L48.2703 35.9158ZM41.6647 35.74C41.6647 35.7886 41.6883 35.8815 41.7172 35.9464C41.7504 36.0208 41.7699 36.0318 41.7699 35.976C41.7699 35.9274 41.7461 35.8343 41.7172 35.7693C41.6841 35.695 41.6647 35.684 41.6647 35.74ZM42.7405 36.0972C42.7596 36.2415 42.7854 36.3707 42.7977 36.3843C42.8475 36.4396 42.8137 35.999 42.7618 35.9201C42.7256 35.8648 42.718 35.9274 42.7405 36.0972ZM20.9793 36.2269L20.7995 36.4188L20.9987 36.2453C21.184 36.0837 21.2258 36.035 21.1785 36.035C21.168 36.035 21.0783 36.1214 20.9793 36.2269ZM41.794 36.3006C41.7946 36.4306 41.8071 36.4767 41.8218 36.4033C41.8365 36.3298 41.836 36.2237 41.8207 36.1671C41.8053 36.1107 41.7933 36.1707 41.794 36.3006ZM20.555 36.6246C20.4587 36.7217 20.3915 36.8105 20.4057 36.8221C20.4202 36.8336 20.5105 36.7541 20.6064 36.6456C20.8231 36.4005 20.7911 36.3875 20.555 36.6246ZM49.0675 36.4681C49.0675 36.508 49.5076 36.752 49.5341 36.7267C49.5463 36.7149 49.4462 36.6458 49.3118 36.5729C49.1774 36.5002 49.0675 36.4531 49.0675 36.4681ZM42.8404 36.9794C42.8404 37.2228 42.8513 37.3225 42.8644 37.2007C42.8775 37.0789 42.8775 36.8797 42.8644 36.7582C42.8513 36.6364 42.8404 36.7359 42.8404 36.9794ZM41.8581 36.9205C41.8581 37.0989 41.8696 37.172 41.8836 37.0828C41.8977 36.9934 41.8977 36.8474 41.8836 36.7582C41.8696 36.6688 41.8581 36.7419 41.8581 36.9205ZM51.8545 36.9025C52.0519 37.0965 52.4488 37.3988 52.314 37.2524C52.2297 37.1608 52.0781 37.0311 51.9771 36.964C51.8759 36.8971 51.8209 36.8694 51.8545 36.9025ZM20.7715 37.2472C20.9553 37.4432 21.1182 37.595 21.1335 37.5845C21.1489 37.574 20.9982 37.4136 20.7991 37.2281L20.4371 36.8909L20.7715 37.2472ZM19.4826 39.3059C19.4826 40.6747 19.461 41.4066 19.4198 41.4264C19.3853 41.4429 19.3922 41.4495 19.4352 41.4412C19.4961 41.4292 19.5166 40.9808 19.5293 39.3797C19.5462 37.2303 19.5475 37.2206 19.8145 37.4363C19.9071 37.5112 19.9013 37.4949 19.7934 37.3774C19.4839 37.0399 19.4826 37.0485 19.4826 39.3059ZM41.794 37.5991C41.7946 37.729 41.8071 37.7751 41.8218 37.7018C41.8365 37.6284 41.836 37.5221 41.8207 37.4657C41.8053 37.4093 41.7933 37.4693 41.794 37.5991ZM51.3101 37.7026C51.5161 37.8866 51.7195 38.1186 51.7624 38.2183C51.8054 38.3182 51.8525 38.3881 51.8672 38.3739C51.9544 38.2899 51.4516 37.7163 51.0582 37.4509C50.9908 37.4055 51.1043 37.5187 51.3101 37.7026ZM42.7674 37.6582C42.7616 37.7556 42.7427 37.9016 42.7254 37.9828L42.6938 38.1304L42.7596 37.9848C42.7959 37.9048 42.815 37.7588 42.8019 37.6602L42.7781 37.4811L42.7674 37.6582ZM20.187 37.8596C20.3218 38.0066 20.4458 38.1413 20.4627 38.1584C20.4794 38.1754 20.6518 38.3535 20.8454 38.554C21.0392 38.7545 21.1967 38.9005 21.1956 38.8786C21.1945 38.8565 20.9121 38.5581 20.5679 38.2153C20.2235 37.8722 20.0522 37.7123 20.187 37.8596ZM21.1976 37.6655C21.1976 37.6966 21.3286 37.8405 21.4886 37.9852L21.7794 38.2485L21.504 37.9543C21.3522 37.7927 21.2214 37.6488 21.2129 37.6347C21.2045 37.6205 21.1976 37.6344 21.1976 37.6655ZM41.691 38.0165C41.6685 38.1031 41.6618 38.1852 41.6763 38.1992C41.6907 38.2131 41.721 38.1537 41.7435 38.0671C41.7659 37.9807 41.7726 37.8984 41.7582 37.8846C41.7437 37.8707 41.7134 37.9301 41.691 38.0165ZM52.8413 38.1893C52.8918 38.4065 52.9268 38.4535 52.9256 38.3025C52.925 38.2403 52.8967 38.1497 52.8625 38.1008C52.8171 38.0362 52.8113 38.06 52.8413 38.1893ZM21.9939 38.4912C21.9939 38.5221 22.1661 38.7058 22.3768 38.8994L22.7595 39.2519L22.392 38.8696C22.1899 38.6595 22.0177 38.4758 22.0093 38.4614C22.0008 38.447 21.9939 38.4605 21.9939 38.4912ZM52.9466 38.9567C52.9468 39.1839 52.9579 39.2697 52.9713 39.1473C52.9844 39.0248 52.9842 38.8387 52.9706 38.7341C52.9572 38.6293 52.9463 38.7294 52.9466 38.9567ZM42.401 38.9003C42.2984 39.1173 42.318 39.1636 42.429 38.9663C42.4808 38.8741 42.5118 38.7877 42.4977 38.7742C42.4837 38.7607 42.4401 38.8173 42.401 38.9003ZM51.9649 39.0452C51.9649 39.2238 51.9762 39.2969 51.9903 39.2075C52.0043 39.1183 52.0043 38.9721 51.9903 38.8829C51.9762 38.7937 51.9649 38.8666 51.9649 39.0452ZM41.1732 39.1959C41.0279 39.4086 40.7783 39.6809 40.6183 39.801C40.0171 40.2517 39.9817 40.2845 40.3615 40.0383C40.7743 39.771 41.1298 39.4097 41.3479 39.0358C41.5501 38.6891 41.4667 38.7654 41.1732 39.1959ZM21.4766 39.226C21.6097 39.3741 21.7307 39.4862 21.7458 39.4749C21.7612 39.4635 21.6524 39.3424 21.5042 39.2056L21.235 38.9567L21.4766 39.226ZM42.152 39.3735C42.0812 39.489 42.0512 39.5671 42.085 39.5467C42.1515 39.5073 42.3502 39.1633 42.3068 39.1633C42.2924 39.1633 42.2227 39.2579 42.152 39.3735ZM47.7984 39.355C47.8542 39.3958 47.9708 39.5587 48.0576 39.7172C48.3344 40.2229 49.0437 40.9176 49.1645 40.8012C49.1779 40.7883 49.0804 40.7193 48.9482 40.6477C48.669 40.4965 48.2781 40.0456 48.0805 39.6475C47.9439 39.3722 47.8651 39.2841 47.7543 39.2821C47.7225 39.2817 47.7423 39.3145 47.7984 39.355ZM23.4611 40.0338C23.8071 40.3992 24.1066 40.6978 24.1268 40.6978C24.1664 40.6978 23.9099 40.4296 23.2524 39.783C23.0212 39.5557 23.1151 39.6687 23.4611 40.0338ZM21.9973 39.7961C22.1134 39.9168 22.3846 40.1888 22.6 40.4009C22.8156 40.6129 22.736 40.5141 22.4231 40.1813C22.1103 39.8488 21.8391 39.5765 21.8204 39.5765C21.8015 39.5765 21.8811 39.6751 21.9973 39.7961ZM41.4747 40.159C40.9876 40.6376 41.0192 40.6412 41.5539 40.168C41.7501 39.9942 42.0779 39.6187 42.0125 39.6425C42.0016 39.6464 41.7597 39.8788 41.4747 40.159ZM47.1391 40.0349C47.2341 40.206 47.3487 40.3752 47.3936 40.4112C47.4384 40.447 47.3796 40.3237 47.263 40.1367C46.9869 39.6951 46.9193 39.6393 47.1391 40.0349ZM51.7041 40.0263C51.5121 40.3752 51.1054 40.7148 50.7391 40.8325C50.5778 40.8844 50.4906 40.9283 50.5456 40.9302C50.9378 40.9446 52.0686 39.9695 51.8754 39.7834C51.8619 39.7705 51.7849 39.8799 51.7041 40.0263ZM52.5665 40.3291C52.5018 40.4506 52.3309 40.683 52.1863 40.8456L51.9237 41.1406L52.1738 40.9133C52.3959 40.7113 52.8031 40.1076 52.7172 40.1076C52.6989 40.1076 52.6311 40.2073 52.5665 40.3291ZM39.0221 40.5533C38.8412 40.6033 38.7991 40.6294 38.8997 40.6297C38.9838 40.6299 39.1493 40.5941 39.267 40.5503C39.536 40.4506 39.3881 40.4523 39.0221 40.5533ZM23.2221 41.0846C23.3719 41.2486 23.5071 41.3738 23.5223 41.3629C23.5374 41.352 23.4148 41.2178 23.2497 41.0647L22.9496 40.7864L23.2221 41.0846ZM49.8485 40.9768C49.9579 40.9898 50.1373 40.9898 50.2467 40.9768C50.3562 40.9637 50.2665 40.953 50.0476 40.953C49.8287 40.953 49.739 40.9637 49.8485 40.9768ZM24.5667 41.188C24.6931 41.3275 24.7024 41.3621 24.6261 41.4084C24.5711 41.4418 24.5645 41.4637 24.609 41.4643C24.7658 41.4663 24.7571 41.3275 24.5912 41.1787L24.4169 41.0224L24.5667 41.188ZM39.6346 41.1995C39.5167 41.2433 39.4617 41.2799 39.5122 41.281C39.5627 41.2821 39.6867 41.2463 39.7877 41.2017C40.0244 41.0973 39.9143 41.0958 39.6346 41.1995ZM51.582 41.2928C51.432 41.3876 51.3359 41.4652 51.3686 41.4652C51.4356 41.4652 51.8852 41.1807 51.8852 41.1384C51.8852 41.1007 51.8872 41.0994 51.582 41.2928ZM38.9302 41.3473C38.7653 41.3876 38.7622 41.3923 38.8997 41.3934C38.9838 41.394 39.1217 41.3732 39.2059 41.3473C39.4117 41.2836 39.1894 41.2836 38.9302 41.3473ZM24.1531 41.447C24.212 41.4617 24.3086 41.4617 24.3675 41.447C24.4265 41.4319 24.3782 41.4199 24.2603 41.4199C24.1424 41.4199 24.0941 41.4319 24.1531 41.447ZM36.5261 41.4502C36.9219 41.4605 37.5696 41.4605 37.9656 41.4502C38.3615 41.4399 38.0375 41.4315 37.2458 41.4315C36.4542 41.4315 36.1302 41.4399 36.5261 41.4502ZM48.6387 41.4948C48.7231 41.5411 48.8194 41.579 48.8532 41.579C48.8868 41.579 48.8454 41.5411 48.7613 41.4948C48.677 41.4482 48.5807 41.4103 48.5468 41.4103C48.5132 41.4103 48.5546 41.4482 48.6387 41.4948ZM50.6909 41.6423C50.6134 41.6742 50.6023 41.6931 50.6602 41.6931C50.7107 41.6931 50.8072 41.6702 50.8744 41.6423C50.9516 41.6103 50.963 41.5915 50.9051 41.5915C50.8546 41.5915 50.7581 41.6144 50.6909 41.6423ZM49.6647 41.7445C49.808 41.757 50.0423 41.757 50.1853 41.7445C50.3286 41.7321 50.2114 41.7218 49.925 41.7218C49.6387 41.7218 49.5216 41.7321 49.6647 41.7445Z" fill="white"/>
<path fill-rule="evenodd" clip-rule="evenodd" d="M54.7286 0.877994C54.7108 0.922375 54.7048 1.11512 54.715 1.30616L54.7337 1.6537H62.5739H70.4144V1.24055V0.827395L62.5875 0.812386C56.0182 0.799951 54.7555 0.810457 54.7286 0.877994ZM70.3837 1.24055V1.62433H62.5739H54.7642V1.28C54.7642 1.09068 54.7826 0.917873 54.8051 0.896219C54.8276 0.874564 58.342 0.856982 62.6149 0.856982H70.3837V1.24055ZM32.9583 10.798C32.9583 17.7061 32.9676 18.4368 33.0553 18.4691C33.2606 18.545 34.3496 18.5079 34.4232 18.4226C34.4759 18.3611 34.4922 16.8731 34.4868 12.5941C34.4786 6.18747 34.4457 6.60513 34.9185 7.13535C35.07 7.30537 35.6759 7.96102 36.2648 8.59222C36.8536 9.22342 37.4187 9.83104 37.5204 9.94232C37.738 10.1801 38.2424 10.7157 38.7183 11.2144C38.9048 11.4099 39.4005 11.9416 39.8197 12.3962C40.2391 12.8505 40.5965 13.2358 40.6138 13.2518C40.6312 13.2681 40.8521 13.5072 41.1047 13.7831C41.3572 14.0591 41.5915 14.3134 41.6253 14.3483C41.6854 14.4105 42.3289 15.0964 43.0037 15.8176C43.189 16.0157 43.5635 16.4158 43.8358 16.707C44.1084 16.9979 44.6976 17.6295 45.1455 18.1106C45.6098 18.6096 45.9828 18.9633 46.0135 18.934C46.0435 18.9048 46.0602 15.5562 46.0513 11.2714L46.0357 3.66052L45.3673 3.6438C44.9995 3.63436 44.676 3.64873 44.6484 3.67531C44.6206 3.70211 44.5968 6.31805 44.5955 9.48885C44.5926 15.701 44.6053 15.4853 44.2631 15.1341C44.0401 14.9055 42.9948 13.7818 42.7614 13.5198C42.6757 13.4238 42.4265 13.1581 42.2076 12.9294C41.9884 12.7008 41.6026 12.2898 41.3499 12.016C41.0973 11.7422 40.5873 11.1964 40.2169 10.8031C39.8462 10.4097 39.3362 9.86556 39.0837 9.5937C38.8309 9.32183 38.5966 9.07055 38.563 9.03518C38.5292 8.9998 38.2538 8.70564 37.9505 8.38146C37.6475 8.0575 37.3849 7.77899 37.3673 7.76269C37.35 7.7464 36.992 7.36133 36.5719 6.9068C36.152 6.45248 35.6948 5.96106 35.5557 5.81484C35.2302 5.47265 33.5975 3.71733 33.3528 3.44654C32.9227 2.97078 32.9583 2.30742 32.9583 10.798ZM0.856859 3.24243C0.842841 3.25594 0.845066 6.68896 0.861976 10.8713L0.892681 18.4756H1.59712H2.30133L2.31713 12.6938C2.33359 6.53331 2.32803 6.63579 2.62796 6.97198C2.71785 7.07275 3.29969 7.69709 3.92091 8.35916C4.5419 9.02124 5.25858 9.78859 5.51312 10.0645C5.76788 10.3405 6.08984 10.6859 6.2289 10.8319C6.53728 11.1563 6.49367 11.1093 7.998 12.7266C8.67173 13.4508 9.51233 14.3517 9.86611 14.7284C10.2199 15.1051 10.7161 15.6373 10.9686 15.9111C11.2214 16.1847 11.5934 16.5824 11.7956 16.7946C11.9977 17.0071 12.5301 17.5716 12.9789 18.0495C13.7616 18.8831 13.9065 19.0066 13.9107 18.8443C13.9439 17.6231 13.8971 3.71412 13.8598 3.67831C13.8304 3.65001 13.5055 3.63436 13.138 3.6438L12.4694 3.66052L12.4538 9.48907C12.4451 12.6948 12.4155 15.3178 12.3877 15.3178C12.3209 15.3178 11.8958 14.8824 10.5717 13.4585C9.96779 12.8093 9.37282 12.1717 9.24934 12.042C9.12585 11.912 8.63101 11.3807 8.14974 10.8615C7.66847 10.342 7.16184 9.79631 7.02389 9.6488C6.88572 9.50129 6.42826 9.01181 6.00729 8.56135C5.5861 8.11067 4.81691 7.28843 4.29804 6.7342C2.94636 5.2902 2.98396 5.3305 2.17072 4.45745C1.76266 4.01921 1.33746 3.56104 1.22599 3.43925C1.04153 3.23793 0.925834 3.17618 0.856859 3.24243ZM61.2569 3.25958C60.9877 3.28831 60.2446 3.43497 60.0014 3.50722C59.7553 3.58055 59.9437 3.58676 60.2159 3.5143C61.315 3.22185 63.7356 3.22056 64.5312 3.51194C64.6214 3.54495 64.7553 3.57025 64.829 3.56811C65.0715 3.56104 64.4287 3.39938 63.7912 3.3074C63.2249 3.22571 61.8234 3.19934 61.2569 3.25958ZM1.056 3.33162C1.06712 3.36164 1.2004 3.51494 1.35192 3.6721C1.50367 3.82947 1.83408 4.18323 2.08617 4.45853C2.33849 4.73382 2.55898 4.97245 2.57634 4.98853C2.61439 5.02434 3.57403 6.04876 3.86773 6.36736C3.98321 6.49278 4.13295 6.65402 4.20037 6.72584C4.39528 6.93381 5.3498 7.94558 5.50844 8.1126C5.58765 8.196 5.78056 8.40783 5.9372 8.583C6.09362 8.75838 6.29075 8.97086 6.3753 9.05533C6.45963 9.13959 6.77425 9.47449 7.07418 9.7991C7.37411 10.1237 7.87251 10.6548 8.18134 10.9796C8.49017 11.3042 8.94518 11.7954 9.19215 12.0713C9.43913 12.3473 9.67164 12.5996 9.70902 12.6322C9.76754 12.683 10.0788 13.0141 11.0331 14.0398C11.1493 14.1646 11.3504 14.377 11.4799 14.5119C11.6096 14.6468 11.8555 14.9105 12.0264 15.0979C12.1975 15.2855 12.367 15.4293 12.4033 15.4175C12.4496 15.4027 12.4785 13.6534 12.5001 9.55811L12.5305 3.71969L13.1885 3.70276L13.8462 3.68603L13.8622 11.2283C13.8709 15.3766 13.8618 18.7916 13.842 18.8173C13.8068 18.8626 13.6958 18.7534 12.8779 17.8688C12.6645 17.6381 12.4302 17.3858 12.3572 17.3077C11.9939 16.9203 11.3613 16.24 11.2694 16.1379C11.0111 15.8508 10.3723 15.1641 10.2337 15.0243C10.0728 14.862 9.11406 13.8391 8.79633 13.4907C8.6942 13.3786 8.445 13.1125 8.24297 12.8992C8.04072 12.686 7.68249 12.3005 7.44664 12.0424C7.21079 11.7843 6.88016 11.4271 6.71172 11.2485C6.21688 10.7236 5.92496 10.4121 5.57275 10.0326C5.24011 9.67453 4.46425 8.84865 3.99455 8.35295C3.85616 8.20694 3.47368 7.79035 3.1446 7.42758C2.54741 6.76894 2.43149 6.67052 2.32647 6.73313C2.29376 6.75264 2.27085 9.15053 2.27085 12.5754V18.3847L2.1329 18.4181C2.05725 18.4363 1.76088 18.4434 1.47452 18.434L0.953869 18.4164L0.938294 10.8467C0.924499 4.07925 0.940964 3.02353 1.056 3.33162ZM33.8699 4.09661C34.1266 4.36891 34.3642 4.62126 34.3983 4.65728C34.4321 4.69351 34.8044 5.09488 35.2251 5.54941C35.6461 6.00373 36.0041 6.38901 36.021 6.40509C36.1193 6.50007 37.3322 7.79636 37.9812 8.50046C38.4002 8.95499 38.7989 9.38058 38.8674 9.44619C38.9357 9.5118 39.0855 9.6711 39.1998 9.80017C39.3144 9.92945 39.5487 10.1835 39.7205 10.3647C39.8925 10.5461 40.1294 10.7984 40.2474 10.9256C40.9856 11.7216 41.5074 12.2821 41.5343 12.3076C41.5514 12.3237 41.9235 12.7223 42.3607 13.1929C42.7979 13.6635 43.1701 14.0621 43.1879 14.0782C43.2055 14.0944 43.4661 14.3734 43.7669 14.698C44.514 15.5046 44.6769 15.5914 44.6513 15.1701C44.6473 15.1051 44.6471 12.4948 44.6509 9.369L44.6575 3.68603L45.3161 3.70276L45.9745 3.71969L45.9901 11.3169L46.0057 18.914L45.6225 18.5172C45.4118 18.2989 45.0327 17.896 44.7801 17.622C44.2637 17.062 43.6093 16.3658 43.5573 16.321C43.5381 16.3049 43.3163 16.0665 43.0642 15.7914C42.5302 15.2087 42.6163 15.3013 41.9884 14.6339C41.3494 13.9544 40.3989 12.9367 39.5125 11.9826C39.1249 11.5658 38.78 11.1959 38.7455 11.161C38.7112 11.126 38.4369 10.8319 38.1361 10.5073C37.8352 10.1827 37.5738 9.90372 37.5553 9.88764C37.5369 9.87135 37.315 9.63229 37.0625 9.35635C36.81 9.08042 36.5757 8.82592 36.5419 8.79097C36.508 8.75581 36.2599 8.49059 35.9903 8.20158C35.7208 7.91256 35.3606 7.52942 35.1897 7.3504C35.0191 7.17137 34.8079 6.94818 34.7207 6.85427C34.3484 6.45376 34.3658 6.17332 34.3678 12.5458C34.3687 15.7301 34.3556 18.3572 34.3384 18.384C34.3037 18.438 33.2698 18.4668 33.136 18.4172C33.0631 18.3904 33.0517 17.2674 33.06 10.905C33.0713 2.18607 33.0462 3.20448 33.244 3.42446C33.3316 3.5218 33.6133 3.82432 33.8699 4.09661ZM59.5114 3.62964C59.444 3.65687 59.2983 3.71176 59.1879 3.75164C59.0773 3.7913 58.9992 3.8359 59.0144 3.85048C59.0433 3.87835 59.7869 3.63115 59.7869 3.59362C59.7869 3.55782 59.6418 3.5769 59.5114 3.62964ZM64.9985 3.59427C65.0125 3.6067 65.3253 3.7317 65.6938 3.87235C67.3488 4.50441 68.7605 5.69949 69.5573 7.14285C69.8012 7.58474 69.9547 7.78907 69.8234 7.49705C69.2431 6.2057 67.8185 4.79342 66.4023 4.10519C65.8769 3.85005 64.8732 3.48471 64.9985 3.59427ZM22.8063 3.67939C22.6935 3.74842 22.6921 18.3868 22.8047 18.4558C22.9618 18.5517 24.1212 18.5139 24.162 18.4117C24.2394 18.2176 24.2036 3.77694 24.1257 3.7019C24.0425 3.62171 22.9313 3.60284 22.8063 3.67939ZM24.1074 11.0679V18.4164H23.4642H22.8209L22.8054 11.1271C22.7967 7.11777 22.8029 3.80353 22.8196 3.76172C22.8419 3.70533 23.0094 3.69011 23.4784 3.70276L24.1074 3.71969V11.0679ZM58.4087 4.08161C56.9122 4.82173 55.7483 5.97221 54.9956 7.45503C54.826 7.78907 54.7056 8.08001 54.7281 8.10167C54.7506 8.12354 54.7864 8.07594 54.8075 7.99618C55.0659 7.02215 56.8955 4.84938 57.7336 4.52135C57.7681 4.50784 57.9679 4.39571 58.1778 4.272C58.3876 4.14829 58.629 4.03036 58.7142 4.00957C58.7996 3.98898 58.8844 3.94846 58.9031 3.91973C58.9625 3.82711 58.8473 3.86484 58.4087 4.08161ZM61.3795 4.37319C60.6052 4.48769 59.6331 4.80007 59.1603 5.0863C59.0346 5.16241 58.9156 5.22459 58.8955 5.22459C58.8134 5.22459 58.0153 5.84121 57.6527 6.18469C57.0915 6.71619 56.1081 8.22066 56.1132 8.53991C56.1138 8.58322 56.264 8.32293 56.4469 7.96166C57.891 5.1086 61.1081 3.74757 64.3047 4.63712C70.065 6.24022 70.8175 14.2934 65.466 17.0622C64.9059 17.3521 64.8672 17.4179 65.4103 17.157C66.7992 16.49 67.9088 15.3399 68.5532 13.9C69.1855 12.4866 69.3366 10.5158 68.9132 9.20884C68.5558 8.10638 68.3836 7.7539 67.8051 6.94089C67.1107 5.96514 65.8266 5.0327 64.6872 4.67658C64.5357 4.62919 64.3132 4.56058 64.193 4.52392C63.4817 4.3078 62.2635 4.24262 61.3795 4.37319ZM69.8955 7.74597C69.8946 7.78542 69.9389 7.91814 69.9941 8.04099C70.2163 8.53562 70.2773 8.74938 70.454 9.65137C70.5915 10.3542 70.5881 11.9991 70.4482 12.6026C69.9576 14.7166 68.9585 16.2456 67.3089 17.4059C67.0497 17.5884 66.8217 17.7378 66.8025 17.7378C66.7832 17.7378 66.6632 17.8011 66.536 17.8784C66.4089 17.9558 65.9891 18.1407 65.6033 18.2892C64.8888 18.5643 64.7609 18.655 65.3739 18.4518C69.4881 17.0879 71.661 12.5512 70.1999 8.37653C70.0283 7.88683 69.8988 7.61819 69.8955 7.74597ZM54.5268 8.56864C53.7778 11.0143 54.1512 13.5942 55.5451 15.6062C56.4436 16.9027 58.8602 18.589 59.7793 18.5609C59.834 18.5594 59.7686 18.5169 59.6338 18.467C58.9997 18.2318 58.4497 17.9972 58.2416 17.8735C58.1159 17.7989 57.9984 17.7378 57.9806 17.7378C57.7143 17.7378 56.2625 16.4503 55.7331 15.7447C54.2724 13.7977 53.8152 11.0686 54.5557 8.71572C54.6409 8.4445 54.6972 8.20973 54.6807 8.19365C54.664 8.17756 54.5948 8.3463 54.5268 8.56864ZM55.9347 9.04654C54.9849 12.1755 56.3711 15.5783 59.1995 17.0605C59.6349 17.2886 60.5414 17.6229 60.7054 17.6156C60.7561 17.6132 60.5772 17.5386 60.3075 17.4494C56.6906 16.2533 54.9074 12.5928 56.0851 8.78089C56.1076 8.70778 56.1103 8.64796 56.0909 8.64796C56.0716 8.64796 56.0013 8.82742 55.9347 9.04654ZM64.3619 17.4752C63.5903 17.7282 62.1988 17.8002 61.012 17.6482L60.7977 17.6207L60.9815 17.6855C61.2589 17.7833 63.0914 17.8238 63.5422 17.7421C63.9565 17.6668 64.9322 17.3922 64.9322 17.3504C64.9322 17.3041 64.7867 17.336 64.3619 17.4752ZM60.0014 18.6231C60.1845 18.699 60.3376 18.699 60.2159 18.6231C60.1651 18.5916 60.0688 18.5673 60.0014 18.569L59.8788 18.5723L60.0014 18.6231ZM64.5646 18.6231C64.4429 18.699 64.596 18.699 64.7791 18.6231L64.9015 18.5723L64.7791 18.569C64.7117 18.5673 64.6151 18.5916 64.5646 18.6231ZM60.7365 18.7802C61.2638 18.9189 63.5167 18.9189 64.044 18.7802C64.3241 18.7067 64.3532 18.6904 64.1666 18.7118C62.6384 18.8872 62.1182 18.8872 60.6139 18.7123C60.4283 18.6906 60.4582 18.7071 60.7365 18.7802ZM54.8058 20.2652C54.6591 20.2924 54.6538 21.0713 54.8 21.1252C55.0547 21.2195 70.3699 21.1631 70.4077 21.0677C70.4773 20.893 70.4484 20.3323 70.3683 20.3033C70.2831 20.2727 54.9682 20.2352 54.8058 20.2652ZM70.3837 20.6888V21.043H62.5739H54.7642V20.6888V20.3347H62.5739H70.3837V20.6888ZM49.2515 32.2921L48.9758 32.374L49.221 32.3442C50.514 32.1862 51.2462 32.3221 51.8278 32.8286C52.0637 33.0338 52.4121 33.4855 52.3645 33.5241C52.3536 33.5329 52.2241 33.6126 52.0764 33.7012C51.7889 33.8738 51.7942 33.8755 51.6138 33.5558C51.4792 33.3174 50.965 32.9613 50.7656 32.9686C50.7247 32.9701 50.8177 33.0348 50.9723 33.1124C51.2295 33.2417 51.4531 33.4506 51.7052 33.797L51.8009 33.9282L52.0882 33.7662C52.4771 33.5464 52.48 33.5346 52.2279 33.1688C51.6921 32.3912 50.2984 31.9806 49.2515 32.2921ZM48.5744 32.5449C47.787 33.0348 47.4232 33.8395 47.591 34.7211C47.7587 35.6029 48.3328 36.1094 50.196 37.0193C51.7664 37.7862 52.1827 38.3732 51.948 39.4905C51.5602 41.3376 49.2059 41.5346 48.1001 39.8125C47.9141 39.5231 47.9316 39.6477 48.1203 39.9581C49.2615 41.8346 52.0739 41.1568 52.0681 39.0066C52.0659 38.0977 51.5964 37.5924 50.109 36.8971C48.4182 36.1066 47.8222 35.5791 47.6686 34.7378C47.5026 33.8279 47.9301 32.8976 48.6734 32.5507C48.823 32.481 48.9453 32.4131 48.9453 32.3998C48.9453 32.3412 48.8279 32.3873 48.5744 32.5449ZM18.9775 32.4819L18.6253 32.4995V36.9528C18.6253 39.4022 18.646 41.4062 18.6711 41.4062C18.6965 41.4062 18.7098 39.4165 18.7011 36.985L18.6849 32.5636L19.0278 32.5434C19.2164 32.5323 19.3822 32.5342 19.3962 32.5477C19.41 32.5612 19.4216 33.4422 19.4216 34.5054C19.4216 35.5686 19.4376 36.4788 19.4572 36.5281C19.4915 36.6143 19.659 36.5984 19.7278 36.5026C19.7447 36.4792 19.9927 36.2239 20.2791 35.9355C21.1593 35.0485 22.9309 33.2501 23.2766 32.892L23.6044 32.5526H24.0787H24.5531L23.9014 33.1948C21.2921 35.7659 20.3423 36.7365 20.3425 36.8319C20.3425 36.8643 20.5005 37.0532 20.6936 37.2517C21.4321 38.0105 22.4253 39.0441 23.0975 39.7536C23.482 40.1592 23.9833 40.6772 24.2116 40.9045C24.582 41.2735 24.6154 41.3256 24.5235 41.3914C24.4051 41.4765 24.4913 41.4907 24.6263 41.4083C24.7282 41.3464 24.7302 41.349 23.9808 40.5807C23.743 40.3368 23.3845 39.9648 23.1845 39.7542C22.9847 39.5437 22.6507 39.1983 22.4427 38.9869C22.2347 38.7755 22.0142 38.5467 21.9528 38.4783C21.8913 38.4099 21.5378 38.0418 21.1673 37.6601C20.7966 37.2787 20.4702 36.9275 20.4418 36.8797C20.3841 36.783 20.3472 36.822 22.9182 34.2642C23.8155 33.3717 24.5542 32.6146 24.5596 32.5822C24.5702 32.5166 23.7928 32.4379 23.648 32.49C23.5975 32.5083 23.2942 32.7891 22.9742 33.1142C22.6541 33.4394 21.8824 34.2192 21.259 34.8472C20.6358 35.4752 20.0317 36.0922 19.9167 36.2185C19.4821 36.6951 19.4828 36.6975 19.4828 34.4771C19.4828 32.951 19.4654 32.5014 19.4062 32.4851C19.3642 32.4735 19.1711 32.472 18.9775 32.4819ZM29.3242 32.4832C29.2298 32.5007 29.222 32.838 29.222 36.8952C29.222 39.3113 29.2198 41.3074 29.2174 41.3309C29.2149 41.3545 29.2354 41.3809 29.2632 41.3899C29.291 41.3989 29.3066 39.4142 29.2977 36.9794C29.2888 34.5447 29.3026 32.5509 29.3284 32.5488C29.354 32.5468 29.5129 32.5406 29.6813 32.5353L29.9877 32.5254L30.0035 36.9215C30.0182 41.002 30.0119 41.323 29.9151 41.3914C29.8028 41.4712 29.8775 41.4932 30.0019 41.4171C30.0787 41.3702 30.1272 32.579 30.0511 32.5057C30.0144 32.4701 29.4824 32.4536 29.3242 32.4832ZM35.5308 32.5378C35.5308 32.5623 36.1854 32.5734 36.9857 32.5629C40.1973 32.5205 41.6574 33.2769 42.4917 35.4153C42.5676 35.61 42.6312 35.7256 42.633 35.6722C42.6381 35.5202 42.3033 34.7687 42.0919 34.4574C41.466 33.5355 40.4309 32.868 39.2303 32.6122C38.669 32.4926 35.531 32.4296 35.5308 32.5378ZM49.543 32.9118C48.7262 33.0972 48.2547 33.8704 48.4583 34.6902C48.5856 35.2029 49.0139 35.5547 50.2058 36.125C52.0646 37.0144 52.47 37.3349 52.7434 38.131C52.7879 38.2605 52.8353 38.3344 52.8489 38.2954C52.886 38.1893 52.6497 37.7107 52.4255 37.4378C52.1133 37.0581 51.5806 36.7193 50.4252 36.1655C48.6708 35.3246 48.2547 34.818 48.5453 33.8755C48.7342 33.2623 49.2655 32.9435 50.1032 32.9409C50.4201 32.9398 50.613 32.921 50.532 32.8993C50.3253 32.8434 49.8149 32.8498 49.543 32.9118ZM36.4344 33.1476C36.298 33.2241 36.2651 40.6144 36.4008 40.7452C36.4969 40.8378 38.1098 40.8408 38.6204 40.7495C40.6679 40.3829 41.7446 39.2594 41.9366 37.2894C41.98 36.8433 41.8669 35.7629 41.7706 35.7056C41.7415 35.6881 41.7174 35.6306 41.7174 35.5776C41.7174 34.9486 40.5331 33.7825 39.5182 33.4117C38.7464 33.13 36.7677 32.9604 36.4344 33.1476ZM38.808 33.2844C42.4984 34.005 43.0676 39.1674 39.5968 40.4386C38.7484 40.7493 36.589 40.8895 36.452 40.6427C36.3283 40.4204 36.3681 33.3481 36.4936 33.2271C36.6206 33.1047 38.0718 33.1407 38.808 33.2844ZM35.5595 36.7138C35.5595 38.4018 35.5673 39.084 35.5769 38.2296C35.5864 37.375 35.5864 35.994 35.5769 35.1602C35.5673 34.3266 35.5595 35.0258 35.5595 36.7138ZM42.6813 36.0646C42.7407 36.4383 42.7418 37.4402 42.6835 37.8647C42.6455 38.1404 42.6493 38.1627 42.7076 38.0122C42.8028 37.7669 42.803 36.1079 42.7078 35.917C42.645 35.7908 42.6412 35.8122 42.6813 36.0646ZM19.4581 37.1409C19.4381 37.1602 19.4216 38.1132 19.4216 39.2587C19.4216 41.1774 19.4131 41.3466 19.3143 41.4077C19.2142 41.4697 19.2147 41.4718 19.3192 41.4401C19.3811 41.4214 19.4432 41.4062 19.4572 41.4062C19.4712 41.4062 19.4828 40.4632 19.4828 39.3108C19.4828 37.6496 19.499 37.2155 19.5611 37.2155C19.6203 37.2155 23.1676 40.9105 23.4951 41.3134C23.5289 41.355 23.6253 41.4081 23.7094 41.4317C23.8416 41.4686 23.8362 41.4583 23.6705 41.3567C23.5648 41.2921 23.4386 41.1845 23.3901 41.1174C23.3414 41.0505 23.0394 40.7229 22.719 40.3893C22.3986 40.0559 21.9906 39.6236 21.8124 39.4288C21.6339 39.2341 21.4297 39.019 21.3582 38.9509C21.2868 38.8829 21.0218 38.6059 20.7691 38.3355C20.5165 38.0652 20.2822 37.8152 20.2484 37.78C20.2148 37.7446 20.0784 37.5967 19.9456 37.4509C19.7046 37.1865 19.5275 37.074 19.4581 37.1409ZM42.5204 38.4612C42.0516 39.9974 40.6545 41.0391 38.6945 41.3146C38.3368 41.365 38.2228 41.3957 38.3793 41.3998C39.3171 41.424 40.5753 40.9474 41.3788 40.2634C41.9399 39.7857 42.718 38.5439 42.6248 38.2746C42.611 38.2345 42.564 38.3186 42.5204 38.4612ZM52.8876 38.9273C52.8876 39.2356 52.8978 39.3616 52.9105 39.2075C52.923 39.0533 52.923 38.801 52.9105 38.6468C52.8978 38.4927 52.8876 38.6187 52.8876 38.9273ZM47.3631 39.5218C46.9967 39.7244 46.9974 39.7137 47.3097 40.2173C48.0529 41.4161 49.4248 41.9639 50.8121 41.6155C51.778 41.3732 52.7149 40.4804 52.8333 39.6895C52.8558 39.5396 52.8358 39.5668 52.755 39.7958C52.199 41.3734 50.2708 42.0959 48.6063 41.3502C47.9855 41.0724 46.956 39.8852 47.1834 39.7096C47.4377 39.513 47.7701 39.4035 47.8455 39.4911C47.8874 39.5396 47.9352 39.566 47.9521 39.5497C47.9959 39.5074 47.8411 39.3402 47.7587 39.3409C47.7207 39.3413 47.5427 39.4225 47.3631 39.5218Z" fill="#7C7C7C"/>
<path fill-rule="evenodd" clip-rule="evenodd" d="M54.6445 0.793954C54.5281 1.00364 54.5657 1.60954 54.7035 1.74226C54.8875 1.91979 70.3003 1.92965 70.4665 1.75234C70.5835 1.62777 70.6091 0.982415 70.5045 0.793954C70.4048 0.614499 54.7442 0.614499 54.6445 0.793954ZM70.4367 0.842195C70.5132 0.981342 70.5094 1.57631 70.4315 1.6685C70.3423 1.77421 54.8252 1.77699 54.7157 1.67151C54.6748 1.63184 54.6423 1.44188 54.6423 1.24056C54.6423 1.03923 54.6748 0.849271 54.7157 0.809821C54.8521 0.678391 70.3641 0.710337 70.4367 0.842195ZM0.738984 3.11466C0.698266 6.26574 0.751444 18.4769 0.806402 18.5405C0.930334 18.6844 2.30939 18.657 2.39171 18.5088C2.43399 18.4325 2.45535 16.5052 2.45579 12.6803L2.45668 6.96598L2.70989 7.23141C2.84917 7.37763 3.11751 7.6585 3.30641 7.85554C3.49509 8.05257 3.76877 8.34481 3.91473 8.50475C4.26583 8.8896 5.01922 9.69276 5.21146 9.88722C5.29556 9.97234 5.46466 10.1599 5.58726 10.304C5.70963 10.4483 5.94393 10.7009 6.10791 10.8653C6.39983 11.1582 6.96008 11.7645 7.32454 12.1824C7.42578 12.2982 7.69456 12.5756 7.92195 12.799C8.14935 13.0224 8.33536 13.2156 8.33536 13.2285C8.33536 13.2413 8.38364 13.3003 8.4426 13.3593C8.50156 13.4182 8.71517 13.6485 8.9172 13.871C9.11945 14.0934 9.36731 14.3607 9.46855 14.4649C9.56956 14.5691 9.83145 14.8477 10.0504 15.0837C10.2693 15.3198 10.5312 15.5989 10.6322 15.7038C10.8325 15.9117 11.4851 16.6141 11.8266 16.9895C11.9445 17.119 12.1552 17.3386 12.295 17.4771C12.4345 17.6158 12.586 17.7805 12.6318 17.8431C12.9189 18.2363 13.8242 19.0952 13.9517 19.0952H14.093V11.4018C14.093 4.02351 14.0885 3.70448 13.9811 3.61078C13.8903 3.53167 13.7334 3.51302 13.1563 3.51302C12.3372 3.51302 12.3103 3.52952 12.3254 4.02565L12.3339 4.30974L12.3726 4.00357C12.394 3.83505 12.4334 3.67618 12.4603 3.65023C12.5368 3.57648 13.8006 3.56855 13.8914 3.64123C14.0124 3.73792 14.008 18.9773 13.887 18.9773C13.802 18.9773 13.3872 18.5703 12.5617 17.6771C12.155 17.2372 11.6668 16.7125 11.4897 16.5249C11.4561 16.4891 11.2219 16.2378 10.9691 15.9664C10.7166 15.695 10.2066 15.1519 9.8359 14.7598C9.46543 14.3676 9.01109 13.8745 8.82664 13.6642C8.64196 13.4536 8.43526 13.2276 8.36718 13.162C8.24035 13.0396 7.35925 12.1052 6.98345 11.6942C6.86797 11.5679 6.74493 11.4352 6.71022 11.3992C6.54112 11.2238 5.89142 10.5334 5.7014 10.327C5.07796 9.65009 4.38843 8.91019 4.35683 8.88425C4.3268 8.85938 3.26614 7.71682 2.67206 7.06911C2.57528 6.96362 2.47315 6.87743 2.44489 6.87743C2.41686 6.87743 2.39372 9.47493 2.39372 12.6498C2.39372 17.0609 2.37636 18.4391 2.32029 18.4932C2.21216 18.5974 0.961262 18.5901 0.870482 18.4848C0.779035 18.3784 0.76969 3.22464 0.861137 3.13652C0.902745 3.09643 0.98329 3.13266 1.107 3.24694C1.3097 3.43412 1.3542 3.38394 1.17219 3.17362C1.04959 3.03189 0.740541 2.98987 0.738984 3.11466ZM32.8771 3.08014C32.8066 3.14832 32.8288 18.381 32.8998 18.5088C32.9677 18.6312 34.2942 18.6848 34.4778 18.5727C34.5574 18.524 34.5984 8.14241 34.5192 8.06608C34.5018 8.04936 34.4893 10.3825 34.4916 13.2506C34.4947 17.452 34.48 18.4749 34.4161 18.5137C34.3013 18.5841 33.1559 18.5751 33.0162 18.503C32.8807 18.4331 32.8237 3.20985 32.9583 3.12966C33.0573 3.0707 33.1432 3.1481 33.9711 4.04431C34.4059 4.51492 34.7766 4.91328 34.7944 4.92958C34.8124 4.94587 35.0336 5.18493 35.2861 5.46087C35.5387 5.73681 35.7729 5.99195 35.8068 6.02797C35.9752 6.20742 36.3479 6.60771 36.8178 7.1137C37.1042 7.42201 37.3538 7.68745 37.3727 7.70374C37.4079 7.73397 37.7065 8.05236 38.5635 8.97365C38.833 9.26331 39.4669 9.94104 39.9722 10.4796C40.4777 11.0182 41.0702 11.655 41.2892 11.8949C41.5081 12.1346 41.8639 12.5119 42.0797 12.7334C42.2953 12.9549 42.5481 13.2221 42.6411 13.3269C43.1535 13.9047 43.9336 14.7377 44.2293 15.0226L44.505 15.2883L44.5205 9.50966C44.5301 5.963 44.5588 3.70491 44.5944 3.66331C44.701 3.5396 45.9103 3.54775 46.0413 3.67296C46.1477 3.77459 46.1503 3.77437 46.1094 3.6706C46.086 3.611 46.0669 3.55118 46.0669 3.53767C46.0669 3.44376 44.6073 3.52202 44.5145 3.62086C44.4215 3.7197 44.4131 4.20811 44.412 9.42004L44.4108 15.1112L44.0597 14.7533C43.8666 14.5565 43.615 14.2909 43.5006 14.1631C43.386 14.0353 43.1517 13.7825 42.9799 13.6013C42.8079 13.4202 42.4606 13.0495 42.2081 12.7774C41.6788 12.2075 41.2634 11.7654 41.0442 11.5383C40.9599 11.4511 40.7532 11.2266 40.5847 11.0394C40.4163 10.8523 40.1958 10.6141 40.0948 10.5099C39.9304 10.3407 39.4041 9.77123 39.1044 9.43826C38.8185 9.12052 38.1059 8.36367 37.8373 8.09245C37.6738 7.92736 37.4257 7.66193 37.2859 7.50263C37.1464 7.34354 36.9081 7.08755 36.7564 6.93403C36.5132 6.68747 35.8889 6.02218 35.5729 5.67291C35.1811 5.23939 34.6024 4.61998 33.9585 3.94482C33.3739 3.33185 33.204 3.13824 33.204 3.08507C33.2037 3.03039 32.9332 3.02632 32.8771 3.08014ZM61.1658 3.15925C60.6847 3.19956 60.2054 3.3237 60.498 3.33227C60.5688 3.3342 60.7083 3.30848 60.808 3.27503C60.9077 3.24158 61.4837 3.19248 62.088 3.1659C63.102 3.1213 63.1278 3.11766 62.4213 3.11787C62.0001 3.11809 61.4352 3.13652 61.1658 3.15925ZM63.5238 3.21307C63.7092 3.23815 63.9848 3.2776 64.1364 3.30097C64.3698 3.33699 64.3933 3.33206 64.2908 3.2701C64.224 3.22979 63.9483 3.19034 63.6782 3.18241C63.2303 3.16911 63.2168 3.1719 63.5238 3.21307ZM59.7153 3.44655C59.5578 3.49929 59.4062 3.56662 59.3784 3.5962C59.3486 3.62794 59.3782 3.6318 59.4505 3.60542C59.5179 3.58098 59.7246 3.52288 59.91 3.47635C60.3628 3.36272 60.4012 3.34471 60.1856 3.34793C60.0846 3.34943 59.873 3.39381 59.7153 3.44655ZM64.4732 3.36508C64.507 3.37601 64.7827 3.45834 65.0858 3.54796C65.389 3.63758 65.6785 3.72956 65.729 3.75272C67.3662 4.49949 68.2257 5.13433 69.0483 6.20442C69.4906 6.78009 69.6121 6.83091 69.1929 6.26488C68.8774 5.83886 68.2179 5.17014 67.8456 4.89892C67.7128 4.80222 67.5206 4.65 67.4185 4.56059C67.3166 4.4714 67.1977 4.39829 67.1548 4.39829C67.1116 4.39829 67.0765 4.37813 67.0765 4.35326C67.0765 4.30438 67.0458 4.28765 66.423 3.99564C66.1929 3.88758 65.9266 3.76151 65.8311 3.7152C65.7359 3.66889 65.6095 3.63115 65.5506 3.63115C65.4914 3.63115 65.4253 3.61379 65.4035 3.59277C65.3301 3.52202 64.7195 3.33978 64.5651 3.34257C64.481 3.34407 64.4396 3.35414 64.4732 3.36508ZM1.32193 3.49908C1.35553 3.52309 1.72733 3.91438 2.1483 4.36891C3.16001 5.46151 3.34713 5.66219 3.71559 6.04898C3.88669 6.22865 4.12098 6.47993 4.23624 6.6075C4.35149 6.73507 4.48722 6.88151 4.53773 6.93296C4.58823 6.98463 4.87593 7.29187 5.17697 7.61605C5.47801 7.94023 5.97419 8.47045 6.27946 8.79463C6.58473 9.1188 6.93116 9.48758 7.04908 9.6145C7.16701 9.74121 7.29094 9.87457 7.32454 9.91081C7.35836 9.94704 7.59265 10.2024 7.84519 10.4781C8.09795 10.7538 8.41968 11.099 8.5603 11.245C8.7007 11.3913 8.8698 11.5707 8.93566 11.6443C9.04803 11.7697 9.58314 12.3421 10.3565 13.165C10.5419 13.3621 10.9003 13.7467 11.1529 14.0198C12.3081 15.2683 12.4641 15.397 12.3882 15.0387C12.3644 14.9263 12.3464 14.9075 12.3306 14.9784C12.2945 15.1412 12.1857 15.0507 11.4897 14.2788C11.3213 14.0919 11.1008 13.8539 10.9998 13.7495C10.7555 13.4976 10.1363 12.8284 9.77449 12.4255C9.61429 12.2469 9.38333 12.0064 9.2614 11.8908C9.13947 11.7753 8.90184 11.524 8.73341 11.3327C8.44572 11.0058 8.01229 10.5446 7.66007 10.1906C7.57507 10.1051 7.44647 9.96141 7.37416 9.87114C7.30207 9.78088 6.98233 9.43569 6.66349 9.1038C6.34487 8.7719 5.86716 8.26226 5.60194 7.97132C5.3365 7.68016 4.98851 7.31288 4.82853 7.1553C4.66856 6.9975 4.53773 6.85621 4.53773 6.84098C4.53773 6.82576 4.43426 6.70355 4.30788 6.56933C3.95678 6.1967 3.42211 5.63625 3.25123 5.46194C3.16713 5.37597 2.93283 5.12297 2.7308 4.89956C2.52855 4.67615 2.22951 4.35905 2.06597 4.19503C1.90244 4.03101 1.68283 3.7971 1.57803 3.67532C1.47323 3.55354 1.35887 3.45448 1.32394 3.45491C1.28233 3.45556 1.28144 3.47056 1.32193 3.49908ZM22.6806 3.58377C22.5831 3.67789 22.5731 18.3334 22.6706 18.5088C22.7473 18.6471 24.1113 18.6846 24.2488 18.5523C24.3556 18.4494 24.3556 3.68668 24.2488 3.58377C24.2001 3.53681 23.9357 3.51302 23.4647 3.51302C22.9937 3.51302 22.7293 3.53681 22.6806 3.58377ZM24.1424 3.63308C24.2893 3.70877 24.3336 18.3523 24.1874 18.4932C24.1395 18.5395 23.8881 18.5641 23.4647 18.5641C23.0413 18.5641 22.7898 18.5395 22.742 18.4932C22.6056 18.3617 22.6388 3.71263 22.7756 3.63587C22.9164 3.55675 23.9902 3.55461 24.1424 3.63308ZM58.9299 3.71541C58.8458 3.76001 58.5885 3.88543 58.3585 3.99414C57.7297 4.29109 57.705 4.30481 57.705 4.35326C57.705 4.37813 57.6678 4.39829 57.6224 4.39829C57.5773 4.39829 57.4669 4.45896 57.3775 4.53315C57.0758 4.78293 57.2119 4.74283 57.6756 4.44524C57.929 4.28251 58.4045 4.03294 58.7323 3.89058C59.06 3.74822 59.2729 3.63222 59.2055 3.63287C59.1381 3.63373 59.0142 3.67082 58.9299 3.71541ZM12.3461 9.59242C12.3461 12.4654 12.3535 13.6408 12.3626 12.2043C12.3717 10.7678 12.3717 8.41706 12.3626 6.98056C12.3535 5.54427 12.3461 6.71942 12.3461 9.59242ZM61.8088 4.46111C61.4915 4.48469 61.6717 4.49691 62.3906 4.5012C62.9633 4.50442 63.4043 4.4982 63.3707 4.48705C63.2421 4.44503 62.2482 4.42852 61.8088 4.46111ZM60.8287 4.58568C60.1879 4.75677 59.8913 4.86354 59.42 5.09295C58.7214 5.433 58.7062 5.44243 58.103 5.91862C57.6009 6.31527 57.2306 6.7475 56.7638 7.48226C56.7071 7.57167 56.6826 7.64457 56.7095 7.64457C56.7362 7.64457 56.8125 7.54508 56.8788 7.4233C56.9452 7.30152 57.0157 7.18874 57.0357 7.17245C57.0557 7.15616 57.0973 7.09955 57.1283 7.0466C57.2259 6.8785 57.6055 6.44948 57.8225 6.26188C57.9375 6.16218 58.1059 6.0076 58.1965 5.91819C58.2873 5.829 58.3789 5.75589 58.4005 5.75589C58.4221 5.75589 58.5705 5.66605 58.7307 5.55628C59.0398 5.34423 59.6301 5.02949 59.8241 4.97332C59.8882 4.95466 60.0884 4.88541 60.2693 4.81916C60.45 4.75291 60.7192 4.68108 60.8672 4.65986C61.0154 4.63842 61.1515 4.59725 61.17 4.56874C61.2107 4.50506 61.1121 4.50999 60.8287 4.58568ZM63.5318 4.54387C63.5601 4.57088 64.2089 4.73554 64.5039 4.79022C64.8045 4.84618 64.483 4.70853 64.0856 4.6114C63.7036 4.51792 63.4762 4.49005 63.5318 4.54387ZM56.9816 4.82924C56.4403 5.30821 55.7448 6.02432 55.7448 6.10258C55.7448 6.13388 55.7239 6.16818 55.6985 6.17891C55.6393 6.20399 55.2886 6.64202 55.2337 6.75929C55.2108 6.80796 55.1393 6.9276 55.0748 7.02494C55.0103 7.12228 54.9556 7.24149 54.9529 7.28951C54.9504 7.33775 55.0552 7.20139 55.1856 6.98635C55.5585 6.37122 56.1172 5.69993 56.6668 5.20659C56.9449 4.95681 57.1476 4.75377 57.1171 4.75548C57.0867 4.75698 57.0257 4.79022 56.9816 4.82924ZM46.0965 11.1565C46.0965 14.6626 46.1038 16.0882 46.1127 14.3245C46.1219 12.561 46.1219 9.69233 46.1127 7.95009C46.1038 6.20764 46.0965 7.65057 46.0965 11.1565ZM64.776 4.90192C64.8415 4.94952 64.9516 4.98768 65.021 4.98661C65.1363 4.98468 65.134 4.97718 64.9939 4.89999C64.7827 4.78357 64.6156 4.78507 64.776 4.90192ZM65.2084 5.04771C65.2293 5.0803 65.3619 5.16092 65.503 5.22696C65.6442 5.29278 65.8423 5.39869 65.9433 5.46216C66.0445 5.52562 66.1684 5.59637 66.2189 5.6191C66.2695 5.64204 66.3413 5.68878 66.3783 5.72308C66.4154 5.75739 66.5685 5.88324 66.7182 6.00288C66.868 6.12252 67.113 6.36822 67.2627 6.54897C67.4122 6.72949 67.558 6.87743 67.5864 6.87743C67.6601 6.87743 67.3085 6.46149 66.9352 6.10729C66.4606 5.65683 65.0401 4.7855 65.2084 5.04771ZM69.6323 7.05796C69.7244 7.22241 69.8088 7.33046 69.8199 7.29852C69.8404 7.23956 69.5509 6.75929 69.495 6.75929C69.4784 6.75929 69.5402 6.89373 69.6323 7.05796ZM34.5292 6.96555C34.5485 7.01401 34.589 7.03909 34.6191 7.02108C34.6493 7.00307 34.674 7.00993 34.674 7.03609C34.674 7.06246 34.8694 7.28308 35.1083 7.52664C35.3471 7.76999 35.671 8.11304 35.8279 8.28863C35.985 8.46423 36.1961 8.69386 36.2972 8.79891C36.4901 8.99981 37.126 9.67689 37.6446 10.2341C37.813 10.4151 38.0197 10.6333 38.1041 10.7193C38.1882 10.8053 38.3246 10.9522 38.4067 11.0456C38.5384 11.1951 39.4956 12.2281 39.664 12.4024C39.6987 12.4384 39.9043 12.6601 40.1208 12.8951C40.3373 13.1301 40.5992 13.4084 40.7029 13.5134C40.8063 13.6187 41.084 13.9144 41.3199 14.1704C41.5557 14.4264 41.875 14.7694 42.0296 14.9326C42.1841 15.0957 42.3885 15.3155 42.4838 15.421C42.579 15.5265 42.6869 15.6124 42.7234 15.612C42.7666 15.6114 42.7683 15.5957 42.7287 15.5676C42.6949 15.5438 42.5599 15.4049 42.4286 15.2587C42.2973 15.1127 42.0488 14.847 41.8763 14.6684C41.7039 14.49 41.2059 13.9587 40.7696 13.4879C40.3333 13.0173 39.9617 12.6189 39.9437 12.6026C39.9257 12.5863 39.8031 12.4536 39.6711 12.3076C39.3997 12.007 38.6225 11.1736 38.0734 10.5945C37.8713 10.3812 37.611 10.1016 37.4951 9.97341C37.2735 9.72814 36.3755 8.76632 36.0379 8.41277C35.9289 8.29871 35.5707 7.90871 35.2416 7.54594C34.6967 6.9454 34.4368 6.73357 34.5292 6.96555ZM67.6278 6.96812C67.6278 6.98935 67.6899 7.0899 67.7656 7.19175C67.9511 7.44045 68.0468 7.59461 68.0933 7.71853C68.1147 7.77535 68.1565 7.82166 68.1863 7.82166C68.2159 7.82166 68.2406 7.86819 68.2408 7.92501C68.2408 7.98182 68.2831 8.10618 68.3347 8.20116C68.4876 8.48395 68.7265 9.1947 68.769 9.49379C68.8077 9.76523 68.9141 9.93975 68.9141 9.73178C68.9141 9.58105 68.628 8.68099 68.4382 8.23482C68.1996 7.67415 67.6278 6.78031 67.6278 6.96812ZM34.5031 7.52664C34.5036 7.90957 34.5103 7.93701 34.5528 7.73011C34.5799 7.59847 34.5797 7.39929 34.5525 7.28737C34.5127 7.12485 34.5027 7.17288 34.5031 7.52664ZM54.665 7.86604C54.2798 8.81671 54.2674 8.86152 54.0847 9.94661C53.9892 10.5141 53.9688 10.8342 53.9959 11.3336C54.0589 12.495 54.1216 12.4009 54.1216 11.1447C54.1216 9.89516 54.1637 9.56798 54.4385 8.67756C54.5537 8.30428 54.829 7.63277 54.8968 7.55902C54.9622 7.48805 54.9636 7.40851 54.8993 7.40851C54.8723 7.40851 54.7667 7.61434 54.665 7.86604ZM69.9465 7.62999C70.1063 7.93444 70.3755 8.70608 70.5079 9.23822C70.5719 9.49551 70.6205 9.61064 70.6236 9.51309C70.6296 9.33235 70.4774 8.74295 70.3815 8.57508C70.3492 8.51869 70.323 8.43335 70.323 8.38533C70.323 8.3373 70.2831 8.2108 70.2346 8.10403C70.1861 7.99747 70.0982 7.79743 70.0393 7.65936C69.9801 7.5215 69.9091 7.40851 69.8811 7.40851C69.8533 7.40851 69.8826 7.50821 69.9465 7.62999ZM56.552 7.82681C56.5077 7.89542 56.483 7.96253 56.4975 7.97646C56.54 8.01741 56.677 7.83131 56.6539 7.7642C56.6421 7.73033 56.5963 7.75841 56.552 7.82681ZM56.2438 8.51697C56.0369 9.03347 55.8418 9.78838 55.8854 9.90266C55.9007 9.94297 55.9319 9.89644 55.9544 9.7991C56.1511 8.94964 56.2472 8.64025 56.4363 8.24983C56.4715 8.17671 56.4848 8.10189 56.4657 8.08345C56.4463 8.06501 56.3466 8.26012 56.2438 8.51697ZM70.6765 10.3302C70.7286 11.0652 70.7286 11.1511 70.6754 11.8059C70.6405 12.236 70.646 12.3089 70.7048 12.1895C70.7993 11.9965 70.7982 10.1623 70.7034 9.91703C70.6491 9.77702 70.6436 9.86321 70.6765 10.3302ZM68.9317 11.0679C68.9319 12.2352 68.9339 12.2555 68.9897 11.6453C69.0262 11.2476 69.026 10.7982 68.9895 10.4352C68.9355 9.89709 68.9314 9.93975 68.9317 11.0679ZM55.7902 10.6106C55.7715 10.9434 55.7768 11.4414 55.8022 11.7174C55.8416 12.1445 55.8498 12.0548 55.8578 11.1123C55.8683 9.88486 55.842 9.68912 55.7902 10.6106ZM55.8889 12.3962C55.9101 12.4935 55.9548 12.7011 55.9884 12.8574C56.022 13.0137 56.079 13.1862 56.1152 13.2409C56.1673 13.3198 56.1731 13.3035 56.1428 13.1633C56.1219 13.066 56.0718 12.8357 56.032 12.6517C55.992 12.4676 55.9348 12.295 55.905 12.268C55.8736 12.2397 55.8669 12.2941 55.8889 12.3962ZM68.8431 12.337C68.8226 12.3696 68.7864 12.5156 68.7626 12.6616C68.7199 12.9249 68.5935 13.349 68.4902 13.5765C68.4606 13.6414 68.391 13.8007 68.3352 13.9307C68.243 14.1448 68.1594 14.3061 67.9691 14.6345C67.5484 15.3618 66.3745 16.5277 65.8979 16.6917C65.8554 16.7063 65.8394 16.7374 65.8621 16.761C66.1053 17.0142 67.8272 15.1643 68.3376 14.1013C68.6758 13.3974 69.0919 11.9449 68.8431 12.337ZM54.1579 12.5535C54.1512 12.7373 54.313 13.4118 54.3993 13.561C54.4318 13.6174 54.4594 13.7102 54.4605 13.7675C54.4623 13.8644 54.6423 14.1521 54.6423 14.0582C54.6423 14.0346 54.5833 13.8503 54.5115 13.6485C54.4396 13.4465 54.3317 13.0823 54.272 12.8387C54.2122 12.5954 54.1608 12.4669 54.1579 12.5535ZM70.5181 12.7797C69.9661 15.4098 67.8815 17.7196 65.3614 18.4938C65.1425 18.5611 64.8806 18.6443 64.7796 18.6786L64.5958 18.741L64.7796 18.7163C65.0339 18.6823 65.4669 18.5729 65.5933 18.5109C65.6511 18.4824 65.9446 18.3448 66.2454 18.2048C66.8006 17.9469 67.3886 17.5952 67.7164 17.3255C68.0837 17.0232 68.4535 16.7012 68.5748 16.5781C68.87 16.2784 69.3428 15.7027 69.3428 15.6429C69.3428 15.6201 69.4049 15.5183 69.4808 15.4167C69.657 15.1798 69.7209 15.0717 69.9394 14.639C70.2309 14.0614 70.323 13.8442 70.323 13.7338C70.323 13.6766 70.347 13.6043 70.3764 13.5737C70.4565 13.4894 70.6423 12.694 70.6189 12.5349C70.6067 12.4519 70.5662 12.5503 70.5181 12.7797ZM56.1773 13.4103C56.1648 13.6434 56.8777 14.903 57.3116 15.4152C57.7824 15.9707 58.9299 16.9115 58.9299 16.7419C58.9299 16.7093 58.8197 16.6231 58.6849 16.5502C58.5503 16.4771 58.4399 16.3959 58.4399 16.3693C58.4399 16.3429 58.4105 16.321 58.3745 16.321C58.2728 16.321 57.1536 15.2079 57.1536 15.1069C57.1536 15.0886 57.0916 14.9892 57.0157 14.8858C56.7747 14.558 56.6882 14.4023 56.3359 13.665C56.2507 13.4866 56.1793 13.3719 56.1773 13.4103ZM54.6454 14.1704C54.6412 14.2563 54.8895 14.745 54.9217 14.7139C54.936 14.7001 54.8804 14.5582 54.7983 14.3983C54.7159 14.2385 54.6472 14.1361 54.6454 14.1704ZM54.9484 14.8337C54.9484 14.9223 55.4571 15.7252 55.6182 15.8907C55.6878 15.9623 55.745 16.0421 55.745 16.0678C55.7454 16.1737 57.0353 17.3836 57.1479 17.3836C57.1848 17.3836 57.2148 17.4044 57.2148 17.4301C57.2148 17.4923 57.9787 17.9739 58.0775 17.9739C58.1202 17.9739 57.9092 17.8176 57.6084 17.6268C57.1167 17.3146 56.2799 16.5935 55.9546 16.2016C55.6217 15.8007 55.3153 15.3779 55.164 15.1112C54.972 14.772 54.9484 14.742 54.9484 14.8337ZM42.7612 15.6911C42.7601 15.7179 42.8351 15.814 42.9277 15.9047C43.0204 15.9951 43.2385 16.2254 43.4125 16.4164C43.5863 16.6075 43.8343 16.8723 43.9636 17.005C44.0929 17.1375 44.3641 17.4289 44.5661 17.6525C44.7684 17.8761 44.9751 18.1008 45.0256 18.152C45.0761 18.2033 45.306 18.4479 45.5365 18.6958C45.9534 19.1445 46.1361 19.2258 46.121 18.956C46.1154 18.8564 46.1081 18.8514 46.0858 18.9329C46.0326 19.1291 45.8555 18.9569 43.6781 16.5968C43.1862 16.0635 42.763 15.6455 42.7612 15.6911ZM59.0525 16.8562C59.2347 16.9775 59.8701 17.2644 59.8977 17.238C59.9131 17.223 59.8466 17.1776 59.7495 17.1371C59.6525 17.0963 59.4703 17.0024 59.3446 16.9282C59.1168 16.7938 58.8653 16.7318 59.0525 16.8562ZM65.4965 16.9233C65.3852 16.9895 65.3051 17.0536 65.3181 17.0663C65.3503 17.0974 65.7181 16.9171 65.7619 16.8487C65.8167 16.7636 65.7186 16.791 65.4965 16.9233ZM64.9807 17.151C64.803 17.2509 64.1299 17.4426 63.957 17.4426C63.8669 17.4426 63.7614 17.4735 63.7225 17.511C63.5788 17.6495 61.3645 17.6012 60.7982 17.4473C60.1149 17.2616 59.8566 17.2376 60.3603 17.4068C61.3268 17.7312 63.055 17.7719 64.1671 17.4964C64.4692 17.4216 65.2391 17.1461 65.2391 17.1128C65.2391 17.0687 65.0875 17.091 64.9807 17.151ZM58.1949 18.029C58.1949 18.0592 58.257 18.1025 58.3327 18.1252C58.4085 18.1482 58.4844 18.1838 58.5011 18.2048C58.518 18.2256 58.6557 18.2912 58.8075 18.3504C58.959 18.4095 59.1303 18.4816 59.1882 18.5103C59.3137 18.5727 59.7455 18.682 60.0019 18.7163C60.2277 18.7466 60.1945 18.7335 59.5424 18.5345C59.256 18.4471 58.8357 18.2852 58.6083 18.1748C58.3809 18.0643 58.1949 17.9985 58.1949 18.029ZM60.4306 18.8261C60.5655 18.8759 60.7997 18.9132 60.9513 18.9093L61.2269 18.9024L60.9513 18.8574C60.7997 18.8328 60.5655 18.7952 60.4306 18.7742L60.1856 18.7359L60.4306 18.8261ZM64.2445 18.7747C64.2254 18.7931 64.0761 18.8298 63.9127 18.8564L63.6157 18.9044L63.8691 18.9112C64.0084 18.9151 64.2151 18.8793 64.3284 18.8319C64.4828 18.7674 64.5026 18.7451 64.4069 18.7434C64.3368 18.7421 64.2636 18.7562 64.2445 18.7747ZM61.4583 18.9886C61.5536 19.047 63.2243 19.0491 63.3189 18.991C63.3578 18.9672 62.9382 18.9466 62.3866 18.9453C61.835 18.9438 61.4172 18.9633 61.4583 18.9886ZM54.7057 20.1552C54.6429 20.1934 54.6134 20.3304 54.6071 20.6117C54.6022 20.8327 54.6085 20.894 54.6209 20.7478C54.6334 20.6018 54.6576 20.4226 54.6748 20.3495L54.7059 20.2167H62.5691C69.6828 20.2167 70.4358 20.2255 70.4696 20.31C70.5294 20.4605 70.5123 20.9817 70.4433 21.1059C70.3677 21.242 55.0154 21.2903 54.7537 21.1554C54.6545 21.1042 54.6338 21.1074 54.6556 21.1702C54.691 21.2725 70.2518 21.3198 70.4491 21.2182C70.5955 21.1427 70.6207 20.3773 70.4827 20.2019C70.3904 20.0847 54.8966 20.0388 54.7057 20.1552ZM48.9151 32.2441C48.6214 32.356 48.6081 32.3648 48.6584 32.4135C48.6802 32.4343 48.7329 32.4251 48.7758 32.3931C48.8446 32.3417 49.1585 32.2518 49.5277 32.1777C49.5951 32.1641 49.5399 32.1526 49.4051 32.1521C49.2705 32.1515 49.05 32.1929 48.9151 32.2441ZM50.569 32.1777C50.8876 32.2418 51.2543 32.3455 51.3653 32.4034C52.169 32.8217 52.6311 33.4158 52.3425 33.6594C52.2466 33.7404 52.2188 33.7921 52.2711 33.7921C52.3772 33.7921 52.5597 33.6047 52.5597 33.4956C52.5597 33.3245 51.9652 32.6116 51.8225 32.6116C51.79 32.6116 51.7634 32.5912 51.7634 32.5662C51.7634 32.4472 50.9557 32.1376 50.6687 32.1464C50.5465 32.15 50.5015 32.1641 50.569 32.1777ZM18.555 32.4493C18.4978 32.5505 18.4791 33.6296 18.4762 36.9891C18.472 42.0196 18.4082 41.5196 19.0605 41.5509C19.6384 41.5786 19.6025 41.7182 19.609 39.4142C19.6139 37.6713 19.6446 37.2028 19.7385 37.4453C19.7707 37.5285 20.6725 38.4963 21.5725 39.4135C21.6604 39.5032 21.7514 39.5765 21.775 39.5765C21.7984 39.5765 21.7081 39.4635 21.5741 39.3256C21.4399 39.1876 21.28 39.019 21.2186 38.9509C21.1569 38.8827 20.8539 38.5641 20.5453 38.2425C20.2367 37.9211 19.9245 37.5851 19.8517 37.4959C19.5545 37.1314 19.5474 37.1737 19.53 39.3846L19.514 41.4356H19.0545H18.5951V36.9498V32.4641H19.0545H19.514L19.53 34.4265C19.5476 36.559 19.5482 36.562 19.8718 36.2121C19.9619 36.1147 20.009 36.035 19.9768 36.035C19.9445 36.035 19.896 36.0682 19.8691 36.1087C19.6166 36.4891 19.6099 36.4458 19.6077 34.4092C19.605 32.1847 19.6439 32.3215 19.0107 32.3185C18.678 32.3168 18.6206 32.3333 18.555 32.4493ZM23.0433 32.9017C22.7191 33.2237 22.0269 33.9203 21.5047 34.4497C20.9825 34.9793 20.4356 35.5281 20.2896 35.6694C20.1434 35.8107 20.0364 35.9385 20.0515 35.9531C20.0758 35.9765 22.0661 34.0136 22.4227 33.615C22.4953 33.5338 22.7905 33.2351 23.0791 32.951L23.6038 32.4345H24.1111C24.8046 32.4345 24.7986 32.4598 23.8934 33.3494C23.464 33.7715 22.6891 34.5415 22.1709 35.0603C21.6529 35.5794 21.1289 36.1038 21.0065 36.226C20.8812 36.351 20.8209 36.4481 20.8686 36.4481C20.9153 36.4481 20.9533 36.4273 20.9533 36.4016C20.9533 36.3761 21.3977 35.9179 21.9406 35.3834C25.0631 32.3099 24.8451 32.5488 24.6775 32.3873C24.6326 32.3442 24.4143 32.3166 24.1182 32.3166H23.6325L23.0433 32.9017ZM29.1634 32.4307C29.1213 32.5065 29.0999 34.0389 29.0999 36.9908V41.4369L29.2292 41.5147C29.3505 41.5876 29.7752 41.5737 30.0952 41.4864C30.2229 41.4517 30.2654 32.6581 30.139 32.4307C30.0858 32.3346 30.0082 32.3166 29.6513 32.3166C29.2942 32.3166 29.2168 32.3346 29.1634 32.4307ZM35.4895 32.4199C35.4686 32.4765 35.4396 32.5496 35.4256 32.5822C35.4114 32.6146 35.4414 32.5919 35.4924 32.5316C35.6328 32.3659 38.7662 32.4186 39.4346 32.5983C41.0698 33.0374 42.0192 33.9092 42.6633 35.5629C42.6822 35.6115 42.6871 35.5717 42.6742 35.4743C42.6511 35.2998 42.5127 34.9119 42.4531 34.8545C42.4362 34.8384 42.3672 34.7188 42.2998 34.589C41.8888 33.7968 40.6501 32.8395 39.7346 32.606C38.5397 32.3016 35.5812 32.1716 35.4895 32.4199ZM30.1105 36.9498V41.4356H29.6513H29.1918L29.176 37.009C29.1674 34.5743 29.1738 32.5477 29.1905 32.5057C29.2123 32.4506 29.3445 32.4343 29.6655 32.4467L30.1105 32.4641V36.9498ZM48.1767 32.6939C47.7757 33.0318 47.472 33.6101 47.4842 34.0123L47.4929 34.2938L47.5336 33.9988C47.6017 33.505 47.8218 33.1125 48.2298 32.7565C48.433 32.5794 48.5734 32.4345 48.5418 32.4345C48.5102 32.4345 48.3458 32.5514 48.1767 32.6939ZM50.079 33.0209C50.5151 33.0711 51.0284 33.2074 51.0284 33.2733C51.0284 33.299 51.0571 33.32 51.0921 33.32C51.1871 33.32 51.3591 33.4949 51.5415 33.7773C51.6307 33.9154 51.7291 34.0282 51.7602 34.0282C51.8826 34.0282 52.1309 33.9096 52.1309 33.8513C52.1309 33.8172 52.0584 33.8352 51.9698 33.8912C51.8114 33.9911 51.8063 33.9898 51.6657 33.8187C51.5871 33.7229 51.4527 33.5612 51.3671 33.4591C51.1299 33.1761 50.7138 33.0147 50.1725 32.9954C49.7208 32.9791 49.7188 32.9797 50.079 33.0209ZM49.252 33.1275C48.2895 33.734 48.2574 34.7449 49.1788 35.4385C49.4858 35.6694 50.6003 36.2309 50.6524 36.1808C50.7009 36.134 50.532 36.0371 50.4005 36.0358C50.3416 36.0354 50.2933 36.0084 50.2933 35.976C50.2933 35.9434 50.2588 35.9168 50.2168 35.9168C50.0009 35.9164 49.313 35.497 48.9461 35.142C48.3248 34.5412 48.5238 33.5569 49.3439 33.1727C49.521 33.0895 49.5984 33.0295 49.5277 33.0301C49.4603 33.0306 49.3363 33.0745 49.252 33.1275ZM36.5237 33.2726C36.4349 33.3584 36.418 40.4984 36.5063 40.6329C36.5508 40.7006 36.747 40.7094 37.5928 40.682C38.5353 40.6515 39.4562 40.5323 39.1885 40.4755C39.128 40.4626 38.993 40.4808 38.8884 40.516C38.7796 40.5525 38.2311 40.5799 37.605 40.5799H36.5114V36.9498V33.32L37.5681 33.311C38.3742 33.3041 38.5304 33.2917 38.2267 33.2589C37.5561 33.1862 36.6055 33.1939 36.5237 33.2726ZM38.7166 33.379C38.7671 33.4105 38.8557 33.4366 38.9135 33.4371C39.1529 33.4392 39.9413 33.7402 40.1135 33.8955C40.1586 33.936 40.229 33.9692 40.2699 33.9692C40.4096 33.9692 41.1356 34.773 41.313 35.1242C41.4102 35.3167 41.5137 35.5206 41.5428 35.577C41.6051 35.6982 41.7208 36.3418 41.7631 36.8023C41.8536 37.7922 41.3072 39.1676 40.5905 39.7536C40.3836 39.9225 39.7771 40.2847 39.7005 40.2847C39.6725 40.2847 39.5704 40.3243 39.474 40.3728C39.2417 40.4896 39.3361 40.4851 39.6945 40.3625C42.3665 39.4481 42.5768 35.1371 40.0169 33.7522C39.5089 33.4776 38.3326 33.1397 38.7166 33.379ZM47.484 34.6336C47.4673 35.3163 48.1128 36.0611 49.252 36.6739C49.7709 36.9528 50.731 37.4035 50.7556 37.3797C50.7719 37.3643 50.4884 37.2095 50.1258 37.0356C48.3324 36.1767 47.6435 35.5416 47.5354 34.648L47.4925 34.2938L47.484 34.6336ZM42.727 35.7989C42.8941 36.3401 42.8965 37.4743 42.7321 38.1599C42.7038 38.2774 42.7149 38.2701 42.7859 38.1241C42.9815 37.7215 42.9552 35.8952 42.7512 35.7136C42.6996 35.6677 42.6934 35.69 42.727 35.7989ZM50.8175 36.2987C50.8829 36.3465 50.9577 36.3862 50.9837 36.3872C51.0095 36.3883 51.1399 36.4556 51.2734 36.5367C51.5498 36.7048 51.6287 36.7239 51.5184 36.5956C51.4763 36.547 51.4065 36.5073 51.3629 36.5073C51.3192 36.5073 51.2743 36.4874 51.2632 36.4629C51.2365 36.405 50.8544 36.2121 50.7668 36.2121C50.7292 36.2121 50.7521 36.2511 50.8175 36.2987ZM20.59 36.6505C20.402 36.8435 20.3119 36.7249 21.872 38.337C22.4358 38.9193 22.8188 39.3145 23.2197 39.727C24.9817 41.5404 24.9187 41.4251 24.1691 41.4652C23.5194 41.4999 23.5399 41.5685 24.1998 41.5677C24.8424 41.5668 24.9728 41.4343 24.6437 41.1161C24.5512 41.0263 24.372 40.8391 24.2457 40.6998C23.9798 40.4064 22.9618 39.3535 22.3121 38.6996C22.0656 38.4513 21.7623 38.1312 21.6382 37.9882C21.5143 37.845 21.213 37.53 20.9689 37.2884C20.7199 37.0418 20.5426 36.8193 20.5648 36.7813C20.5867 36.7442 20.6458 36.6673 20.6966 36.6104C20.8356 36.4544 20.7497 36.4867 20.59 36.6505ZM51.7941 36.8195C52.1494 37.0686 52.6144 37.5753 52.7677 37.8808C52.8536 38.0517 52.9237 38.1389 52.925 38.0765C52.9313 37.7562 51.9449 36.6703 51.6632 36.6876C51.6341 36.6893 51.693 36.7487 51.7941 36.8195ZM51.0896 37.6151C51.4737 37.9219 51.7022 38.1698 51.7022 38.2794C51.7022 38.3304 51.7366 38.4056 51.7787 38.4462C51.9596 38.6203 51.8292 39.7888 51.5994 40.0533C51.5549 40.1046 51.5184 40.1663 51.5184 40.1905C51.5184 40.215 51.4423 40.3057 51.3493 40.3925C50.8255 40.8811 49.7822 41.025 49.1908 40.6905C49.1403 40.662 49.0437 40.6151 48.9763 40.5863C48.7191 40.4766 48.1976 39.8246 48.0525 39.4316C47.9448 39.1395 47.063 39.3316 46.9954 39.662C46.9767 39.7532 46.9872 39.7521 47.092 39.6511C47.2564 39.4927 47.7474 39.2723 47.8509 39.3104C47.8981 39.328 47.9989 39.4727 48.0747 39.6322C48.8281 41.2148 50.9174 41.4139 51.7331 39.9811C51.9756 39.5553 52.0001 38.64 51.78 38.2403C51.6461 37.9974 51.0008 37.3915 50.8782 37.3937C50.8429 37.3943 50.9379 37.494 51.0896 37.6151ZM52.9671 38.6616C53.0476 39.7519 52.6589 40.6031 51.8034 41.21C51.4027 41.4943 51.3869 41.5466 51.7725 41.3121C52.7177 40.7371 53.3556 39.1844 52.9949 38.337C52.9479 38.2266 52.9408 38.3085 52.9671 38.6616ZM42.644 38.4146C42.5701 39.5274 40.7832 41.0608 39.2373 41.338C39.035 41.3743 38.8145 41.4146 38.7473 41.4277C38.6799 41.4407 38.7444 41.4547 38.8908 41.4583C39.1654 41.4654 39.7038 41.3423 40.0427 41.195C40.1488 41.1487 40.2661 41.111 40.303 41.111C40.3402 41.111 40.3705 41.0844 40.3705 41.052C40.3705 41.0196 40.4076 40.9931 40.4532 40.9931C40.9 40.9931 42.0982 39.8336 42.4662 39.0452C42.5191 38.9316 42.5957 38.7691 42.6364 38.6842C42.6769 38.599 42.6967 38.4796 42.6805 38.4185C42.6531 38.3154 42.6504 38.3152 42.644 38.4146ZM21.8115 39.6539C21.8111 39.6805 21.8798 39.7733 21.9641 39.8606C22.5304 40.4468 22.8635 40.7965 23.1525 41.1082C23.3345 41.3046 23.5085 41.4652 23.5394 41.4652C23.5704 41.4652 23.4627 41.3267 23.3005 41.1571C23.1381 40.9877 22.8524 40.6888 22.6652 40.4931C21.929 39.7225 21.8122 39.6076 21.8115 39.6539ZM46.9865 39.8576C46.9852 39.9914 47.3165 40.4712 47.6972 40.8865C48.0262 41.2456 48.6443 41.6423 48.8751 41.6423C48.9436 41.6423 49.0168 41.6689 49.0377 41.7012C49.0584 41.7338 49.1634 41.7583 49.2709 41.7559C49.4291 41.752 49.3926 41.7304 49.0802 41.6414C48.2866 41.4159 47.6386 40.8811 47.14 40.0407C47.0559 39.899 46.9867 39.8166 46.9865 39.8576ZM35.4129 41.2936C35.4023 41.5501 35.5391 41.5689 37.0935 41.5261L38.5635 41.4853L37.0454 41.4753C35.5331 41.4652 35.5273 41.4647 35.4721 41.3325C35.4361 41.2461 35.4154 41.2325 35.4129 41.2936ZM51.2492 41.5141C51.232 41.5411 51.058 41.5972 50.8627 41.6388C50.3818 41.7413 50.3587 41.7503 50.5574 41.7557C50.7543 41.761 51.3199 41.5949 51.3698 41.5171C51.3882 41.4885 51.3755 41.4652 51.3419 41.4652C51.3081 41.4652 51.2665 41.4873 51.2492 41.5141ZM49.9113 41.802C49.9874 41.8162 50.0977 41.8157 50.1562 41.8009C50.2148 41.7861 50.1524 41.7746 50.0176 41.7752C49.883 41.7758 49.8349 41.7878 49.9113 41.802Z" fill="white"/>
</svg>
